<svg width="23" height="23" viewBox="0 0 23 23" fill="none" xmlns="http://www.w3.org/2000/svg">
<path d="M22.5245 17.7802L19.0834 14.3387L19.7625 13.8453C20.0861 13.6111 20.327 13.2802 20.4504 12.9003C20.5738 12.5204 20.5735 12.1111 20.4493 11.7315L19.9856 10.3043C19.9366 10.1545 19.9366 9.99297 19.9856 9.84316L20.4493 8.41594C20.5735 8.03629 20.5739 7.62702 20.4504 7.24713C20.327 6.86724 20.0861 6.53636 19.7625 6.30219L18.5485 5.42005C18.4207 5.3277 18.3258 5.19701 18.2774 5.04699L17.8137 3.61977C17.6909 3.23967 17.4507 2.90835 17.1276 2.67356C16.8044 2.43878 16.4151 2.31265 16.0156 2.31336H14.5149C14.3563 2.31336 14.2047 2.26409 14.0764 2.17086L12.8623 1.28878C12.5396 1.05344 12.1505 0.926636 11.751 0.926636C11.3516 0.926636 10.9625 1.05344 10.6397 1.28878L9.42561 2.17092C9.29829 2.26382 9.14469 2.31373 8.98708 2.31342H7.48639C7.08695 2.31269 6.6976 2.43882 6.37444 2.6736C6.05129 2.90839 5.81103 3.23971 5.68829 3.61983L5.22453 5.0471C5.1761 5.19707 5.08117 5.32771 4.95351 5.4201L3.73945 6.30219C3.41588 6.53638 3.17502 6.86726 3.05159 7.24714C2.92815 7.62702 2.92852 8.03628 3.05263 8.41594L3.51639 9.84316C3.56537 9.99295 3.56537 10.1544 3.51639 10.3042L3.05263 11.7315C2.92851 12.1112 2.92814 12.5204 3.05158 12.9003C3.17501 13.2802 3.41588 13.6111 3.73945 13.8453L4.41856 14.3387L0.977496 17.7802C0.910286 17.8474 0.860881 17.9303 0.833746 18.0214C0.806611 18.1125 0.802599 18.209 0.822074 18.302C0.841549 18.3951 0.883896 18.4818 0.945291 18.5544C1.00669 18.627 1.08519 18.6831 1.17372 18.7177L3.93746 19.7991L5.0188 22.5628C5.05343 22.6513 5.10958 22.7298 5.18216 22.7912C5.25475 22.8526 5.34149 22.895 5.43454 22.9145C5.5276 22.9339 5.62403 22.9299 5.71515 22.9028C5.80626 22.8756 5.88917 22.8262 5.95639 22.759L10.1865 18.5293L10.6397 18.8586C10.9625 19.0938 11.3516 19.2206 11.751 19.2207C12.1504 19.2206 12.5395 19.0938 12.8623 18.8586L13.3155 18.5293L17.5457 22.759C17.6129 22.8262 17.6958 22.8756 17.7869 22.9028C17.878 22.93 17.9745 22.934 18.0675 22.9145C18.1606 22.895 18.2473 22.8527 18.3199 22.7913C18.3925 22.7299 18.4486 22.6513 18.4832 22.5628L19.5646 19.7991L22.3283 18.7177C22.4168 18.6831 22.4953 18.6269 22.5567 18.5544C22.6181 18.4818 22.6604 18.3951 22.6799 18.302C22.6994 18.209 22.6953 18.1126 22.6682 18.0215C22.6411 17.9304 22.5917 17.8475 22.5245 17.7802ZM5.76583 21.331L4.91207 19.1489C4.88331 19.0754 4.83964 19.0086 4.7838 18.9528C4.72797 18.8969 4.66119 18.8533 4.58766 18.8245L2.40557 17.9708L5.23706 15.1388L5.68835 16.5276C5.81108 16.9077 6.05134 17.2391 6.37449 17.4739C6.69765 17.7087 7.087 17.8348 7.48645 17.834H8.98714C9.06886 17.834 9.14869 17.8474 9.22446 17.8728L5.76583 21.331ZM11.3124 17.9327L10.0984 17.0506C9.77573 16.8152 9.3865 16.6887 8.98714 16.6895H7.48645C7.32882 16.6898 7.17516 16.64 7.04764 16.5474C6.92012 16.4547 6.82532 16.324 6.7769 16.174L6.31314 14.7468C6.19451 14.3816 5.97144 14.0679 5.66826 13.8345C5.65789 13.8257 5.6472 13.8173 5.63621 13.8093C5.63284 13.8068 5.62975 13.8039 5.62631 13.8015L4.41226 12.9193C4.28458 12.8269 4.18953 12.6964 4.14082 12.5464C4.09212 12.3965 4.09226 12.235 4.14124 12.0852L4.605 10.658C4.72918 10.2784 4.72918 9.86914 4.605 9.48956L4.14124 8.0624C4.09226 7.91256 4.09212 7.75105 4.14082 7.60112C4.18953 7.4512 4.28457 7.3206 4.41226 7.22816L5.62631 6.34608C5.94991 6.112 6.19049 5.7809 6.31314 5.40082L6.7769 3.9736C6.82532 3.8236 6.92013 3.69284 7.04765 3.60019C7.17517 3.50753 7.32882 3.45776 7.48645 3.45805H8.98714C9.38653 3.45887 9.77579 3.33238 10.0984 3.09695L11.3124 2.21493C11.4398 2.12204 11.5933 2.07198 11.751 2.07198C11.9086 2.07198 12.0622 2.12204 12.1896 2.21493L13.4036 3.09707C13.7262 3.33249 14.1155 3.45897 14.5149 3.45817H16.0156C16.1733 3.4579 16.3269 3.50768 16.4544 3.60033C16.5819 3.69298 16.6767 3.82372 16.7251 3.97371L17.1889 5.40088C17.3115 5.781 17.5521 6.11213 17.8757 6.34619L19.0898 7.22833C19.2175 7.32077 19.3125 7.45135 19.3612 7.60127C19.4099 7.75119 19.4098 7.91269 19.3608 8.06252L18.897 9.48979C18.7729 9.86936 18.7729 10.2786 18.897 10.6582L19.3608 12.0854C19.4098 12.2352 19.4099 12.3967 19.3612 12.5467C19.3125 12.6966 19.2175 12.8272 19.0898 12.9196L17.8758 13.8016C17.8715 13.8047 17.8677 13.8082 17.8635 13.8113C17.8538 13.8185 17.8442 13.8259 17.8349 13.8338C17.5312 14.0672 17.3077 14.3812 17.1889 14.7469L16.7251 16.1741C16.6767 16.3241 16.5819 16.4549 16.4544 16.5475C16.3269 16.6402 16.1733 16.69 16.0156 16.6897H14.5149C14.1155 16.6889 13.7263 16.8154 13.4036 17.0508L12.1896 17.9328C12.0622 18.0256 11.9086 18.0756 11.751 18.0756C11.5934 18.0756 11.4398 18.0256 11.3124 17.9327ZM18.9144 18.8245C18.8408 18.8533 18.7741 18.897 18.7182 18.9528C18.6624 19.0086 18.6187 19.0754 18.59 19.1489L17.7362 21.331L14.2775 17.8728C14.354 17.8471 14.4342 17.834 14.5148 17.8341H16.0156C16.415 17.8348 16.8043 17.7087 17.1275 17.4739C17.4506 17.2391 17.6909 16.9078 17.8136 16.5277L18.2649 15.1388L21.0965 17.9708L18.9144 18.8245Z" fill="white"/>
<path d="M14.3976 14.3182C14.4809 14.3182 14.5632 14.3 14.6388 14.2649C14.7144 14.2297 14.7814 14.1785 14.8351 14.1148C14.8888 14.0511 14.928 13.9764 14.9499 13.896C14.9717 13.8156 14.9758 13.7314 14.9617 13.6492L14.5071 10.9987L16.4328 9.12154C16.5093 9.04701 16.5633 8.95257 16.5889 8.8489C16.6145 8.74523 16.6106 8.63647 16.5776 8.53492C16.5446 8.43336 16.4839 8.34306 16.4022 8.27423C16.3206 8.20541 16.2213 8.16079 16.1156 8.14544L13.4543 7.7587L12.2642 5.34714C12.2169 5.2514 12.1438 5.17079 12.0531 5.11443C11.9624 5.05807 11.8578 5.0282 11.751 5.0282C11.6442 5.0282 11.5396 5.05807 11.4489 5.11443C11.3582 5.17079 11.2851 5.2514 11.2378 5.34714L10.0477 7.7587L7.38639 8.14544C7.28073 8.16081 7.18148 8.20544 7.09985 8.27427C7.01823 8.3431 6.95749 8.43339 6.92449 8.53494C6.8915 8.63648 6.88757 8.74523 6.91315 8.8489C6.93873 8.95256 6.9928 9.047 7.06924 9.12154L8.99495 10.9987L8.54035 13.6492C8.52232 13.7544 8.53409 13.8626 8.57433 13.9615C8.61456 14.0604 8.68166 14.1461 8.76804 14.2088C8.85441 14.2716 8.95662 14.309 9.06311 14.3167C9.1696 14.3244 9.27613 14.3021 9.37064 14.2525L11.751 13.0011L14.1313 14.2524C14.2134 14.2956 14.3048 14.3182 14.3976 14.3182ZM12.0172 11.848C11.9351 11.8049 11.8437 11.7823 11.751 11.7823C11.6582 11.7823 11.5668 11.8049 11.4847 11.848L9.86439 12.6999L10.1739 10.8956C10.1896 10.8042 10.1828 10.7103 10.1541 10.622C10.1254 10.5338 10.0757 10.4538 10.0093 10.389L8.69846 9.1113L10.51 8.848C10.6018 8.83467 10.689 8.79921 10.7641 8.74467C10.8391 8.69014 10.8998 8.61817 10.9409 8.53497L11.751 6.8935L12.5611 8.53503C12.6021 8.61823 12.6628 8.69019 12.7378 8.74472C12.8129 8.79925 12.9001 8.83472 12.9919 8.84806L14.8035 9.11136L13.4926 10.3891C13.4262 10.4539 13.3765 10.5338 13.3478 10.6221C13.3192 10.7103 13.3124 10.8042 13.3281 10.8957L13.6375 12.6999L12.0172 11.848Z" fill="white"/>
</svg>
