<svg width="18" height="17" viewBox="0 0 18 17" fill="none" xmlns="http://www.w3.org/2000/svg">
<path d="M10.9104 3.86696C11.6586 4.00354 12.3462 4.34592 12.8852 4.85028C13.4242 5.35463 13.7901 5.99801 13.9361 6.69808M10.9104 1C12.4648 1.16158 13.9143 1.81291 15.0209 2.84704C16.1275 3.88118 16.8254 5.23665 17 6.69091M16.234 12.4105V14.5607C16.2349 14.7603 16.1912 14.9579 16.1057 15.1408C16.0203 15.3237 15.8949 15.4879 15.7377 15.6228C15.5805 15.7578 15.3949 15.8605 15.1928 15.9244C14.9908 15.9884 14.7766 16.0121 14.5642 15.9942C12.2071 15.7545 9.94297 15.0009 7.95371 13.7938C6.10295 12.6934 4.53384 11.2251 3.35779 9.49336C2.06326 7.62353 1.25765 5.49467 1.00622 3.27923C0.987076 3.08103 1.01225 2.88127 1.08014 2.69267C1.14802 2.50407 1.25713 2.33076 1.40052 2.18378C1.54391 2.0368 1.71843 1.91937 1.91298 1.83896C2.10753 1.75855 2.31785 1.71693 2.53053 1.71674H4.82849C5.20022 1.71332 5.56061 1.83649 5.84247 2.06331C6.12433 2.29012 6.30843 2.6051 6.36046 2.94953C6.45745 3.63765 6.63732 4.31329 6.89665 4.96357C6.99971 5.22011 7.02201 5.49891 6.96092 5.76695C6.89983 6.03498 6.7579 6.28101 6.55195 6.47589L5.57915 7.38614C6.66958 9.18053 8.25739 10.6663 10.1751 11.6866L11.1479 10.7763C11.3561 10.5836 11.6191 10.4508 11.9055 10.3936C12.192 10.3365 12.4899 10.3574 12.7641 10.4538C13.4591 10.6964 14.1811 10.8648 14.9165 10.9555C15.2886 11.0046 15.6284 11.18 15.8713 11.4483C16.1143 11.7165 16.2433 12.059 16.234 12.4105Z" stroke="#424B5C" stroke-width="1.5" stroke-linecap="round" stroke-linejoin="round"/>
</svg>
