<svg width="40" height="58" viewBox="0 0 40 58" fill="none" xmlns="http://www.w3.org/2000/svg">
<path d="M17.7274 6.70174L16.5424 2.46751C16.4274 2.05653 16.6675 1.63025 17.0785 1.51538L19.3596 0.878174C19.7704 0.76342 20.1963 1.00324 20.3113 1.41388L21.4335 5.42415M26.1153 5.90017L27.7246 2.35356C27.9008 1.96523 28.3583 1.79316 28.7466 1.96908L30.9038 2.94613C31.2926 3.12217 31.4649 3.58028 31.2885 3.96895L29.4321 8.06021M14.0124 11.1477C15.5234 8.10586 18.2528 5.28345 23.1722 5.49438C27.4623 5.67835 29.8567 8.21925 31.1891 11.1478M33.6357 19.4406C34.5053 17.3584 35.7729 15.4416 37.3626 13.8388C37.851 11.6855 34.3444 8.9532 33.0992 9.90533C31.0197 11.4955 29.0476 13.1737 26.8896 15.877M38.1549 37.8968C38.0253 35.8296 37.8999 34.032 37.9276 32.8191C38.1712 22.1374 33.2715 15.246 20.2532 15.246C20.1894 15.246 20.1259 15.2463 20.0626 15.2469M4.88634 40.2358C6.19078 42.9411 8.41177 45.8547 12.091 48.6694C24.4769 58.145 31.7658 58.8342 35.8815 54.8716C38.297 52.546 38.5452 46.9673 38.3596 41.8084M4.88634 40.2358C0.618133 33.3654 1.03886 26.5359 3.10148 18.9786M4.88634 40.2358C6.72195 43.1904 16.7429 30.9814 19.2922 25.2131C22.1336 18.7836 20.921 12.1143 13.4072 11.2133C9.21029 10.71 6.29647 13.2006 4.64879 15.6486M6.19561 13.6561C6.09083 11.1059 5.4321 8.57744 4.25941 6.30921C4.43873 4.10872 8.60329 2.55043 9.50614 3.8313C10.9479 5.87693 12.2718 7.97026 13.477 10.9694M16.7748 30.4038C17.2678 32.0852 18.6296 33.3626 20.0438 34.3971C21.458 35.4316 23.0029 36.3318 24.1508 37.6557C27.0209 40.9658 26.7738 46.1108 29.4518 49.5781M18.8119 32.8805C20.4068 30.8766 22.9764 29.9722 25.4062 29.1626C26.3572 28.8457 27.3083 28.5289 28.2593 28.2119M23.7401 29.3159C23.5425 27.8396 24.0206 26.2863 25.0138 25.1763M21.7946 31.0587C23.1498 31.9898 24.7633 32.5409 26.4048 32.6331M20.2589 34.9045C19.3845 38.1444 16.8958 40.9053 13.7637 42.1102M17.9522 39.7016C18.6981 40.9783 19.1329 42.4351 19.2091 43.9116M18.8462 37.8936C18.0063 37.4223 17.0652 37.1324 16.1056 37.0494M26.3124 41.0347C28.1147 40.7059 29.9888 40.7766 31.7612 41.2403M26.2731 42.5862C24.7378 43.7699 23.6631 45.5359 23.3174 47.4435M29.4761 40.4501C29.6084 39.4835 30.0683 38.5648 30.7628 37.8796M28.2112 46.6704C29.4362 46.525 30.6956 46.6797 31.849 47.1172" stroke="#0E264F" stroke-width="1.69922" stroke-miterlimit="10" stroke-linecap="round" stroke-linejoin="round"/>
</svg>
