<svg width="18" height="23" viewBox="0 0 18 23" fill="none" xmlns="http://www.w3.org/2000/svg">
<path d="M16.8457 3.66656C13.116 3.66656 9.25072 0.209325 9.21245 0.17469C8.95554 -0.05823 8.56395 -0.05823 8.30709 0.17469C8.26859 0.209594 4.41349 3.66656 0.673828 3.66656C0.301695 3.66656 0 3.96825 0 4.34039V12.4101C0 18.9473 4.86217 21.5595 8.51944 22.9557C8.59684 22.9853 8.67828 23 8.75977 23C8.84126 23 8.9227 22.9852 9.0001 22.9557C14.1281 20.998 17.5195 17.9443 17.5195 12.4101V4.34039C17.5195 3.96825 17.2178 3.66656 16.8457 3.66656Z" fill="url(#paint0_linear_2_5813)"/>
<path d="M8.75928 6.7832C6.15844 6.7832 4.04248 8.89916 4.04248 11.5C4.04248 14.1008 6.15844 16.2168 8.75928 16.2168C11.3601 16.2168 13.4761 14.1008 13.4761 11.5C13.4761 8.89916 11.3601 6.7832 8.75928 6.7832ZM10.5834 11.3026L8.56189 13.3241C8.43036 13.4557 8.25791 13.5215 8.08545 13.5215C7.913 13.5215 7.74054 13.4557 7.60901 13.3241L6.93518 12.6503C6.67203 12.3871 6.67203 11.9605 6.93518 11.6973C7.19829 11.4342 7.62496 11.4342 7.88811 11.6973L8.0855 11.8947L9.63054 10.3497C9.89365 10.0865 10.3203 10.0865 10.5835 10.3497C10.8466 10.6128 10.8466 11.0395 10.5834 11.3026Z" fill="url(#paint1_linear_2_5813)"/>
<defs>
<linearGradient id="paint0_linear_2_5813" x1="8.75977" y1="23" x2="8.75977" y2="-1.09673e-05" gradientUnits="userSpaceOnUse">
<stop stop-color="#00B59C"/>
<stop offset="1" stop-color="#9CFFAC"/>
</linearGradient>
<linearGradient id="paint1_linear_2_5813" x1="8.75928" y1="16.2168" x2="8.75928" y2="6.7832" gradientUnits="userSpaceOnUse">
<stop stop-color="#C3FFE8"/>
<stop offset="0.9973" stop-color="#F0FFF4"/>
</linearGradient>
</defs>
</svg>
