<svg width="39" height="40" viewBox="0 0 39 40" fill="none" xmlns="http://www.w3.org/2000/svg">
<path d="M33.6909 16.7854C33.739 11.1459 28.9358 5.97602 22.9839 5.26111C22.8655 5.24708 22.7365 5.22571 22.6 5.2031C22.3054 5.15428 22.0006 5.1041 21.6932 5.1041C20.4733 5.1041 20.1472 5.96099 20.0614 6.47204C19.9779 6.96893 20.0575 7.3862 20.2977 7.71278C20.7016 8.2621 21.4124 8.35961 21.9834 8.43775C22.1507 8.46086 22.3086 8.48235 22.4408 8.51204C27.7883 9.70694 29.5889 11.5856 30.4689 16.8877C30.4904 17.0172 30.5001 17.1769 30.5104 17.3462C30.5488 17.98 30.6288 19.2986 32.0464 19.2986H32.0466C32.1646 19.2986 32.2914 19.2884 32.4235 19.2683C33.7436 19.0677 33.7022 17.8623 33.6823 17.2832C33.6768 17.1201 33.6714 16.9658 33.6852 16.8632C33.6889 16.8374 33.6908 16.8114 33.6909 16.7854Z" fill="white"/>
<path d="M21.3469 3.19105C21.5052 3.20248 21.6552 3.21341 21.78 3.23254C30.5612 4.58297 34.5996 8.74345 35.7187 17.5934C35.7377 17.7438 35.7407 17.9273 35.7438 18.1216C35.755 18.813 35.778 20.2514 37.3227 20.2812L37.3707 20.2817C37.8551 20.2817 38.2405 20.1356 38.5161 19.8472C38.997 19.3442 38.9634 18.597 38.9364 17.9965C38.9298 17.8491 38.9234 17.7104 38.9251 17.5889C39.0367 8.53774 31.202 0.330185 22.1589 0.0249689C22.1214 0.0237266 22.0856 0.0257142 22.0495 0.0308074C22.0317 0.0334161 21.9988 0.0366459 21.9424 0.0366459C21.8522 0.0366459 21.7413 0.0288198 21.6236 0.0208695C21.4814 0.0111801 21.3201 0 21.1567 0C19.7165 0 19.4428 1.0236 19.4077 1.63378C19.327 3.04397 20.6912 3.14322 21.3469 3.19105Z" fill="white"/>
<path d="M35.2969 29.0313C35.1102 28.8887 34.9172 28.7412 34.7364 28.5956C33.7777 27.824 32.7577 27.1128 31.7712 26.425C31.5665 26.2824 31.3618 26.1397 31.1578 25.9966C29.8942 25.109 28.7582 24.6777 27.6849 24.6777C26.2393 24.6777 24.9789 25.4764 23.9387 27.0515C23.4778 27.7497 22.9187 28.0892 22.2296 28.0892C21.8222 28.0892 21.3592 27.973 20.8537 27.7435C16.7751 25.894 13.8627 23.0582 12.1972 19.315C11.3922 17.5058 11.6531 16.3232 13.07 15.3607C13.8746 14.8146 15.3723 13.798 15.2662 11.8511C15.1461 9.64034 10.2681 2.98831 8.21279 2.23279C7.3426 1.91279 6.42832 1.90981 5.49043 2.22533C3.12771 3.01962 1.43219 4.41452 0.586723 6.25899C-0.230293 8.04122 -0.193399 10.1339 0.693431 12.3108C3.25715 18.6047 6.86161 24.0921 11.4071 28.6204C15.8562 33.0532 21.3247 36.6842 27.6603 39.4123C28.2314 39.658 28.8304 39.7921 29.2678 39.8898C29.4168 39.9234 29.5455 39.9519 29.6393 39.9776C29.6909 39.9917 29.744 39.9993 29.7973 39.9998L29.8474 40C29.8474 40 29.8474 40 29.8476 40C32.8275 40 36.4055 37.277 37.5044 34.1727C38.4671 31.4544 36.7093 30.1108 35.2969 29.0313Z" fill="white"/>
<path d="M22.6667 10.3806C22.1565 10.3935 21.0948 10.4199 20.7222 11.5012C20.548 12.0066 20.5688 12.4453 20.7844 12.8053C21.1006 13.3335 21.7066 13.4954 22.2578 13.5842C24.2567 13.9049 25.2832 15.0103 25.4886 17.0624C25.584 18.0193 26.2283 18.6875 27.0556 18.6875C27.1168 18.6875 27.1794 18.6839 27.2416 18.6764C28.2366 18.558 28.719 17.8269 28.6754 16.5037C28.6913 15.1227 27.9686 13.5549 26.7394 12.3061C25.506 11.0534 24.0191 10.3479 22.6667 10.3806Z" fill="white"/>
</svg>
