<svg width="22" height="16" viewBox="0 0 22 16" fill="none" xmlns="http://www.w3.org/2000/svg">
<path fill-rule="evenodd" clip-rule="evenodd" d="M11.1422 0.000785657L11 0C4.97593 0 0.0769999 4.85257 0.000785657 10.8578L0 11C0 12.4991 0.300929 13.9284 0.844643 15.2311C0.904173 15.3743 1.00485 15.4967 1.13394 15.5827C1.26303 15.6687 1.41474 15.7145 1.56986 15.7143L20.4286 15.7182C20.7452 15.7182 21.0312 15.5281 21.1538 15.2358C21.7138 13.8939 22.0015 12.4541 22 11C22 4.97593 17.1474 0.0769999 11.1422 0.000785657ZM10.2143 1.60364C8.26104 1.76506 6.4073 2.53381 4.91307 3.80207L6.0555 4.9445C6.19862 5.09269 6.27782 5.29116 6.27603 5.49717C6.27424 5.70318 6.19161 5.90025 6.04593 6.04593C5.90025 6.19161 5.70318 6.27424 5.49717 6.27603C5.29116 6.27782 5.09269 6.19862 4.9445 6.0555L3.80207 4.91307C2.53372 6.40725 1.76496 8.26101 1.60364 10.2143H3.14286C3.35124 10.2143 3.55109 10.2971 3.69844 10.4444C3.84579 10.5918 3.92857 10.7916 3.92857 11C3.92857 11.2084 3.84579 11.4082 3.69844 11.5556C3.55109 11.7029 3.35124 11.7857 3.14286 11.7857H1.60364C1.67121 12.6052 1.84407 13.3956 2.10886 14.1429L19.8904 14.1468C20.1551 13.3988 20.3288 12.6068 20.3964 11.7857H18.8571C18.6488 11.7857 18.4489 11.7029 18.3016 11.5556C18.1542 11.4082 18.0714 11.2084 18.0714 11C18.0714 10.7916 18.1542 10.5918 18.3016 10.4444C18.4489 10.2971 18.6488 10.2143 18.8571 10.2143H20.3964C20.2349 8.26104 19.4662 6.4073 18.1979 4.91307L17.0555 6.0555C16.9073 6.19862 16.7088 6.27782 16.5028 6.27603C16.2968 6.27424 16.0997 6.19161 15.9541 6.04593C15.8084 5.90025 15.7258 5.70318 15.724 5.49717C15.7222 5.29116 15.8014 5.09269 15.9445 4.9445L17.0869 3.80207C15.5927 2.53372 13.739 1.76496 11.7857 1.60364V3.14286C11.7857 3.35124 11.7029 3.55109 11.5556 3.69844C11.4082 3.84579 11.2084 3.92857 11 3.92857C10.7916 3.92857 10.5918 3.84579 10.4444 3.69844C10.2971 3.55109 10.2143 3.35124 10.2143 3.14286V1.60364ZM10.2143 8.77721C9.80658 8.92114 9.4463 9.17439 9.17284 9.50929C8.89938 9.84418 8.72326 10.2478 8.66373 10.6761C8.60421 11.1043 8.66358 11.5407 8.83535 11.9374C9.00712 12.3342 9.28468 12.6761 9.63768 12.9258C9.99067 13.1754 10.4055 13.3232 10.8369 13.353C11.2682 13.3828 11.6994 13.2934 12.0833 13.0946C12.4673 12.8958 12.7892 12.5952 13.0138 12.2258C13.2385 11.8564 13.3573 11.4324 13.3571 11C13.357 10.5125 13.2058 10.0371 12.9244 9.63904C12.643 9.241 12.2452 8.93992 11.7857 8.77721V6.28571C11.7857 6.07733 11.7029 5.87748 11.5556 5.73013C11.4082 5.58278 11.2084 5.5 11 5.5C10.7916 5.5 10.5918 5.58278 10.4444 5.73013C10.2971 5.87748 10.2143 6.07733 10.2143 6.28571V8.77721ZM11 10.2143C11.2084 10.2143 11.4082 10.2971 11.5556 10.4444C11.7029 10.5918 11.7857 10.7916 11.7857 11C11.7857 11.2084 11.7029 11.4082 11.5556 11.5556C11.4082 11.7029 11.2084 11.7857 11 11.7857C10.7916 11.7857 10.5918 11.7029 10.4444 11.5556C10.2971 11.4082 10.2143 11.2084 10.2143 11C10.2143 10.7916 10.2971 10.5918 10.4444 10.4444C10.5918 10.2971 10.7916 10.2143 11 10.2143Z" fill="white"/>
</svg>
