<svg width="50" height="50" viewBox="0 0 50 50" fill="none" xmlns="http://www.w3.org/2000/svg">
<mask id="mask0_1_7135" style="mask-type:luminance" maskUnits="userSpaceOnUse" x="0" y="0" width="50" height="50">
<path d="M49.25 49.25V0.75H0.75V49.25H49.25Z" fill="white" stroke="white" stroke-width="1.5"/>
</mask>
<g mask="url(#mask0_1_7135)">
<path d="M1.73535 22.0769C2.39717 24.1168 3.44209 26.1077 4.67012 27.9119C5.73174 29.4716 8.87715 36.0113 11.4188 41.4186C12.573 43.8745 16.187 43.4557 16.7501 40.8011L19.0484 29.9657C19.3305 28.9163 20.8196 28.9163 21.1017 29.9657L23.4 40.8011C23.9631 43.4557 27.5771 43.8745 28.7313 41.4186C28.9529 40.9471 29.1791 40.467 29.4081 39.9826" stroke="#0E264F" stroke-width="1.5" stroke-miterlimit="10" stroke-linecap="round" stroke-linejoin="round"/>
<path d="M39.1063 18.8973C39.2725 17.2968 39.1432 15.7096 38.6241 14.2011C37.4611 10.8218 35.085 8.33552 32.1048 7.37986C27.9367 6.04324 24.3142 8.13445 21.985 9.77449C20.8399 10.5806 19.3106 10.5806 18.1656 9.77449C15.8365 8.13445 12.214 6.04324 8.0459 7.37986C5.35215 8.24363 3.15186 10.3581 1.89502 13.252" stroke="#0E264F" stroke-width="1.5" stroke-miterlimit="10" stroke-linecap="round" stroke-linejoin="round"/>
<path d="M25.2176 12.1272C22.6486 13.4204 19.5178 12.3861 18.2246 9.81718" stroke="#0E264F" stroke-width="1.5" stroke-miterlimit="10" stroke-linecap="round" stroke-linejoin="round"/>
<path d="M49.0232 30.9743C49.0232 37.4438 43.8203 42.6884 37.4022 42.6884C30.9842 42.6884 25.7812 37.4438 25.7812 30.9743C25.7812 24.5049 30.9842 19.2603 37.4022 19.2603C43.8203 19.2603 49.0232 24.5049 49.0232 30.9743Z" stroke="#0E264F" stroke-width="1.5" stroke-miterlimit="10" stroke-linecap="round" stroke-linejoin="round"/>
<path d="M42.069 28.601H39.7556V26.2675C39.7556 25.6085 39.2256 25.0743 38.5718 25.0743H36.2322C35.5785 25.0743 35.0485 25.6085 35.0485 26.2675V28.601H32.7351C32.0813 28.601 31.5513 29.1353 31.5513 29.7943V32.1542C31.5513 32.8133 32.0813 33.3475 32.7351 33.3475H35.0485V35.681C35.0485 36.3401 35.5785 36.8743 36.2322 36.8743H38.5718C39.2256 36.8743 39.7556 36.3401 39.7556 35.681V33.3475H42.069C42.7228 33.3475 43.2528 32.8133 43.2528 32.1542V29.7943C43.2528 29.1353 42.7228 28.601 42.069 28.601Z" stroke="#0E264F" stroke-width="1.5" stroke-miterlimit="10" stroke-linecap="round" stroke-linejoin="round"/>
</g>
</svg>
