<svg width="44" height="44" viewBox="0 0 44 44" fill="none" xmlns="http://www.w3.org/2000/svg">
<path d="M0 19.2789V42.0804L14.6581 30.6797L0 19.2789Z" fill="white"/>
<path d="M38.2422 13.3469V20.3574L42.5711 16.9904L38.2422 13.3469Z" fill="white"/>
<path d="M22.7443 0.302736C22.2646 -0.100912 21.5639 -0.100912 21.0842 0.302736L17.666 3.17967H26.1624L22.7443 0.302736Z" fill="white"/>
<path d="M5.58577 13.3469L1.25684 16.9904L5.58577 20.3574V13.3469Z" fill="white"/>
<path d="M17.2002 31.9688L1.73145 44H42.097L26.6282 31.9688H17.2002Z" fill="white"/>
<path d="M29.1699 30.6797L43.8281 42.0805V19.2788L29.1699 30.6797Z" fill="white"/>
<path d="M21.589 15.4141C20.5434 15.4141 19.4619 16.4307 19.4619 18.1319C19.4619 19.8615 20.5169 21.0234 21.5022 21.0234C22.5399 21.0234 23.3907 19.8093 23.4519 18.2829L23.4535 17.9588C23.4072 16.4529 22.6536 15.4141 21.589 15.4141Z" fill="white"/>
<path d="M26.6281 29.3906L35.6641 22.3625V7.04685C35.6641 6.33494 35.0869 5.75778 34.375 5.75778H9.45313C8.74122 5.75778 8.16406 6.33494 8.16406 7.04685V22.3626L17.2001 29.3906H26.6281ZM12.8269 20.6171C12.2113 18.2766 12.5208 15.8091 13.6986 13.6694C14.8759 11.5304 16.7943 9.9481 19.1006 9.21393C21.5338 8.43921 24.1173 8.66746 26.375 9.85657C28.633 11.0458 30.2827 13.0461 31.0199 15.489C31.024 15.5022 31.0277 15.5156 31.0313 15.5291C31.5213 17.3647 31.3762 19.0975 30.5608 21.1476C30.0097 22.5332 28.6585 24.0139 26.5191 24.0139C25.7429 24.0139 24.9986 23.6956 24.4234 23.1175C24.2872 22.9807 24.1646 22.8317 24.0548 22.6738C23.3323 23.2615 22.4562 23.6014 21.5024 23.6014C20.2565 23.6014 19.0451 22.9966 18.179 21.942C17.3438 20.9252 16.884 19.5721 16.884 18.1318C16.884 16.6852 17.3733 15.3465 18.2619 14.3626C19.1381 13.3924 20.351 12.8359 21.5892 12.8359C22.2703 12.8359 22.9175 12.9982 23.499 13.304C23.6118 12.7065 24.1356 12.2551 24.7645 12.2551H24.7711C25.483 12.2586 26.0573 12.8386 26.0538 13.5505L26.0183 20.7121C26.0172 20.932 26.1041 21.1513 26.2509 21.2988C26.3017 21.3499 26.4041 21.4356 26.5191 21.4356C27.5593 21.4356 28.0168 20.5677 28.1652 20.1947C28.7673 18.6807 28.8815 17.4887 28.5456 16.2137C28.0065 14.4463 26.8097 12.9992 25.1737 12.1376C23.5319 11.2729 21.6526 11.1071 19.8827 11.6705C16.3937 12.7811 14.3896 16.4228 15.3203 19.9612C16.093 22.8996 18.7491 25.0103 21.7793 25.0942C22.4909 25.1138 23.052 25.7067 23.0322 26.4184C23.0129 27.1179 22.4397 27.6718 21.7443 27.6718C21.7322 27.6718 21.7202 27.6716 21.708 27.6713C19.7104 27.616 17.7385 26.9064 16.1554 25.673C14.5107 24.3919 13.3598 22.6436 12.8269 20.6171Z" fill="white"/>
</svg>
