<svg width="52" height="45" viewBox="0 0 52 45" fill="none" xmlns="http://www.w3.org/2000/svg">
<g opacity="0.9">
<path d="M32.7861 38.3824H18.0645" stroke="#0E264F" stroke-width="1.48437" stroke-miterlimit="10" stroke-linecap="round" stroke-linejoin="round"/>
<path d="M1.73242 20.5112V15.6774C1.73242 14.0592 3.04395 12.7477 4.66211 12.7477H35.1201C36.3086 12.7477 37.3789 13.4645 37.8301 14.5631L41.1387 22.6129C41.3545 23.1383 41.7881 23.5446 42.3271 23.7243L48.2646 25.7028C49.4609 26.1012 50.2676 27.2213 50.2676 28.4821V35.4528C50.2676 37.0709 48.9561 38.3825 47.3379 38.3825H43.627" stroke="#0E264F" stroke-width="1.48437" stroke-miterlimit="10" stroke-linecap="round" stroke-linejoin="round"/>
<path d="M7.22559 38.3825H4.66211C3.04395 38.3825 1.73242 37.0709 1.73242 35.4528V23.9291" stroke="#0E264F" stroke-width="1.48437" stroke-miterlimit="10" stroke-linecap="round" stroke-linejoin="round"/>
<path d="M26.4883 22.9526V16.1655C26.4883 15.8958 26.7068 15.6772 26.9766 15.6772H34.6546C34.8538 15.6772 35.0331 15.7983 35.1075 15.9832L37.8395 22.7703C37.9687 23.0911 37.7324 23.4409 37.3865 23.4409H26.9766C26.7068 23.4409 26.4883 23.2223 26.4883 22.9526Z" stroke="#0E264F" stroke-width="1.48437" stroke-miterlimit="10" stroke-linecap="round" stroke-linejoin="round"/>
<path d="M34.9456 30.0327H1.73242" stroke="#0E264F" stroke-width="1.48437" stroke-miterlimit="10" stroke-linecap="round" stroke-linejoin="round"/>
<path d="M50.2683 30.0326H38.3643" stroke="#0E264F" stroke-width="1.48437" stroke-miterlimit="10" stroke-linecap="round" stroke-linejoin="round"/>
<path d="M23.5586 38.3823V12.7476" stroke="#0E264F" stroke-width="1.48437" stroke-miterlimit="10" stroke-linecap="round" stroke-linejoin="round"/>
<path d="M29.2715 12.7475V10.6968C29.2715 9.29452 30.4083 8.1577 31.8105 8.1577C33.2128 8.1577 34.3496 9.29452 34.3496 10.6968V12.7475" stroke="#0E264F" stroke-width="1.48437" stroke-miterlimit="10" stroke-linecap="round" stroke-linejoin="round"/>
<path d="M43.627 38.3823C43.627 41.3757 41.2003 43.8023 38.207 43.8023C35.2138 43.8023 32.7871 41.3757 32.7871 38.3823C32.7871 35.389 35.2138 32.9624 38.207 32.9624C41.2003 32.9624 43.627 35.389 43.627 38.3823Z" stroke="#0E264F" stroke-width="1.48437" stroke-miterlimit="10" stroke-linecap="round" stroke-linejoin="round"/>
<path d="M39.6719 38.3823C39.6719 39.1913 39.016 39.8472 38.207 39.8472C37.398 39.8472 36.7422 39.1913 36.7422 38.3823C36.7422 37.5734 37.398 36.9175 38.207 36.9175C39.016 36.9175 39.6719 37.5734 39.6719 38.3823Z" stroke="#0E264F" stroke-width="1.48437" stroke-miterlimit="10" stroke-linecap="round" stroke-linejoin="round"/>
<path d="M18.0645 38.3822C18.0645 41.3756 15.6378 43.8021 12.6445 43.8021C9.65127 43.8021 7.22461 41.3756 7.22461 38.3822C7.22461 35.3889 9.65127 32.9623 12.6445 32.9623C15.6378 32.9623 18.0645 35.3889 18.0645 38.3822Z" stroke="#0E264F" stroke-width="1.48437" stroke-miterlimit="10" stroke-linecap="round" stroke-linejoin="round"/>
<path d="M14.1094 38.3822C14.1094 39.1912 13.4535 39.8471 12.6445 39.8471C11.8355 39.8471 11.1797 39.1912 11.1797 38.3822C11.1797 37.5732 11.8355 36.9174 12.6445 36.9174C13.4535 36.9174 14.1094 37.5732 14.1094 38.3822Z" stroke="#0E264F" stroke-width="1.48437" stroke-miterlimit="10" stroke-linecap="round" stroke-linejoin="round"/>
<path d="M31.8101 1.53107V3.74289" stroke="#0E264F" stroke-width="1.48437" stroke-miterlimit="10" stroke-linecap="round" stroke-linejoin="round"/>
<path d="M35.7052 2.60484L34.7764 4.25133" stroke="#0E264F" stroke-width="1.48437" stroke-miterlimit="10" stroke-linecap="round" stroke-linejoin="round"/>
<path d="M27.916 2.60495L28.8448 4.25143" stroke="#0E264F" stroke-width="1.48437" stroke-miterlimit="10" stroke-linecap="round" stroke-linejoin="round"/>
<path d="M17.7715 19.9252H14.4023C14.2405 19.9252 14.1094 19.794 14.1094 19.6322V16.2631C14.1094 15.9394 13.847 15.6771 13.5234 15.6771H11.7656C11.4421 15.6771 11.1797 15.9394 11.1797 16.2631V19.6322C11.1797 19.794 11.0485 19.9252 10.8867 19.9252H7.51758C7.19404 19.9252 6.93164 20.1875 6.93164 20.5111V22.2689C6.93164 22.5925 7.19404 22.8549 7.51758 22.8549H10.8867C11.0485 22.8549 11.1797 22.986 11.1797 23.1478V26.517C11.1797 26.8405 11.4421 27.1029 11.7656 27.1029H13.5234C13.847 27.1029 14.1094 26.8405 14.1094 26.517V23.1478C14.1094 22.986 14.2405 22.8549 14.4023 22.8549H17.7715C18.095 22.8549 18.3574 22.5925 18.3574 22.2689V20.5111C18.3574 20.1875 18.095 19.9252 17.7715 19.9252Z" stroke="#0E264F" stroke-width="1.48437" stroke-miterlimit="10" stroke-linecap="round" stroke-linejoin="round"/>
</g>
</svg>
