<svg width="152" height="41" viewBox="0 0 152 41" fill="none" xmlns="http://www.w3.org/2000/svg">
<rect x="7.81396" y="29.4673" width="143.984" height="10.9734" fill="#F5F6F9"/>
<path d="M57.1168 8.52246C57.5432 8.52246 57.7564 8.73567 57.7564 9.16209V12.147C57.7564 12.5735 57.5432 12.7867 57.1168 12.7867H47.6645C46.9064 12.7867 46.2786 12.8577 45.7811 12.9999C45.2836 13.1183 44.8809 13.3315 44.5729 13.6395C44.2886 13.9238 44.0873 14.3265 43.9688 14.8477C43.8504 15.3452 43.7911 15.9611 43.7911 16.6955V27.2494C43.7911 27.7706 43.5306 28.0312 43.0094 28.0312H39.5269C38.9821 28.0312 38.7096 27.7706 38.7096 27.2494V15.7361C38.7096 14.4568 38.8518 13.3671 39.136 12.4669C39.4203 11.5429 39.8823 10.7967 40.5219 10.2281C41.1852 9.63589 42.0499 9.20947 43.116 8.94888C44.2057 8.6646 45.556 8.52246 47.167 8.52246H57.1168Z" fill="white"/>
<path d="M87.1184 8.52246C88.7056 8.52246 90.0322 8.6646 91.0983 8.94888C92.188 9.20947 93.0646 9.63589 93.7279 10.2281C94.3912 10.7967 94.8532 11.5429 95.1138 12.4669C95.398 13.3671 95.5402 14.4568 95.5402 15.7361V27.2494C95.5402 27.7706 95.2796 28.0312 94.7584 28.0312H91.276C90.7548 28.0312 90.4942 27.7706 90.4942 27.2494V16.9443C90.4942 16.2099 90.4468 15.5939 90.3521 15.0964C90.2573 14.5753 90.0796 14.1725 89.819 13.8883C89.5584 13.5803 89.1913 13.3671 88.7175 13.2486C88.2437 13.1065 87.6159 13.0354 86.8341 13.0354H80.5799V27.2494C80.5799 27.7706 80.3075 28.0312 79.7626 28.0312H76.2802C75.759 28.0312 75.4984 27.7706 75.4984 27.2494V13.0354H69.4574C68.6994 13.0354 68.0716 13.1065 67.5741 13.2486C67.0766 13.3671 66.6739 13.5803 66.3659 13.8883C66.0816 14.1725 65.8803 14.5753 65.7618 15.0964C65.6434 15.5939 65.5841 16.2099 65.5841 16.9443V27.2494C65.5841 27.7706 65.3235 28.0312 64.8024 28.0312H61.3199C60.775 28.0312 60.5026 27.7706 60.5026 27.2494V15.7361C60.5026 14.4568 60.6448 13.3671 60.929 12.4669C61.2133 11.5429 61.6753 10.7967 62.3149 10.2281C62.9782 9.63589 63.8429 9.20947 64.909 8.94888C65.9987 8.6646 67.349 8.52246 68.96 8.52246H87.1184Z" fill="white"/>
<path d="M118.155 8.52246C119.743 8.52246 121.081 8.6646 122.171 8.94888C123.261 9.20947 124.125 9.63589 124.765 10.2281C125.428 10.7967 125.902 11.5429 126.186 12.4669C126.471 13.3671 126.613 14.4568 126.613 15.7361V20.8531C126.613 22.1324 126.471 23.234 126.186 24.1579C125.902 25.0581 125.428 25.8043 124.765 26.3966C124.125 26.9652 123.261 27.3797 122.171 27.6403C121.081 27.9009 119.743 28.0312 118.155 28.0312H108.099C106.488 28.0312 105.138 27.9009 104.048 27.6403C102.982 27.3797 102.117 26.9652 101.454 26.3966C100.814 25.8043 100.352 25.0581 100.068 24.1579C99.7838 23.234 99.6417 22.1324 99.6417 20.8531V15.7361C99.6417 14.4568 99.7838 13.3671 100.068 12.4669C100.352 11.5429 100.814 10.7967 101.454 10.2281C102.117 9.63589 102.982 9.20947 104.048 8.94888C105.138 8.6646 106.488 8.52246 108.099 8.52246H118.155ZM104.723 19.9648C104.723 20.7228 104.782 21.3506 104.901 21.8481C105.019 22.3456 105.221 22.7483 105.505 23.0563C105.813 23.3406 106.216 23.5538 106.713 23.6959C107.211 23.8144 107.838 23.8736 108.597 23.8736H117.658C118.44 23.8736 119.079 23.8144 119.577 23.6959C120.074 23.5538 120.465 23.3406 120.75 23.0563C121.057 22.7483 121.271 22.3456 121.389 21.8481C121.508 21.3506 121.567 20.7228 121.567 19.9648V16.5889C121.567 15.8545 121.508 15.2386 121.389 14.7411C121.271 14.2436 121.057 13.8409 120.75 13.5329C120.465 13.2249 120.074 13.0117 119.577 12.8933C119.079 12.7748 118.44 12.7156 117.658 12.7156H108.597C107.838 12.7156 107.211 12.7748 106.713 12.8933C106.216 13.0117 105.813 13.2249 105.505 13.5329C105.221 13.8409 105.019 14.2436 104.901 14.7411C104.782 15.2386 104.723 15.8545 104.723 16.5889V19.9648Z" fill="white"/>
<path d="M149.112 8.52246C149.539 8.52246 149.752 8.73567 149.752 9.16209V12.147C149.752 12.5735 149.539 12.7867 149.112 12.7867H139.66C138.902 12.7867 138.274 12.8577 137.777 12.9999C137.279 13.1183 136.876 13.3315 136.568 13.6395C136.284 13.9238 136.083 14.3265 135.964 14.8477C135.846 15.3452 135.787 15.9611 135.787 16.6955V27.2494C135.787 27.7706 135.526 28.0312 135.005 28.0312H131.522C130.978 28.0312 130.705 27.7706 130.705 27.2494V15.7361C130.705 14.4568 130.847 13.3671 131.132 12.4669C131.416 11.5429 131.878 10.7967 132.517 10.2281C133.181 9.63589 134.045 9.20947 135.112 8.94888C136.201 8.6646 137.552 8.52246 139.163 8.52246H149.112Z" fill="white"/>
<path d="M15.4739 36.7874H13.5027L13.1396 37.7924H12.5171L14.1511 33.2989H14.832L16.4595 37.7924H15.837L15.4739 36.7874ZM15.3053 36.3075L14.4883 34.0251L13.6713 36.3075H15.3053Z" fill="#0E264F"/>
<path d="M20.3943 37.7924L19.318 35.9444H18.6047V37.7924H18.0146V33.2729H19.4736C19.8151 33.2729 20.1026 33.3313 20.336 33.448C20.5737 33.5647 20.751 33.7225 20.8677 33.9213C20.9844 34.1202 21.0428 34.3471 21.0428 34.6022C21.0428 34.9134 20.952 35.1879 20.7704 35.4257C20.5932 35.6634 20.3252 35.8212 19.9664 35.899L21.1011 37.7924H20.3943ZM18.6047 35.4711H19.4736C19.7935 35.4711 20.0334 35.3933 20.1933 35.2376C20.3533 35.0777 20.4333 34.8659 20.4333 34.6022C20.4333 34.3342 20.3533 34.1267 20.1933 33.9797C20.0377 33.8327 19.7978 33.7592 19.4736 33.7592H18.6047V35.4711Z" fill="#0E264F"/>
<path d="M27.387 33.3053V37.7924H26.7969V34.4466L25.3055 37.7924H24.8905L23.3927 34.4401V37.7924H22.8026V33.3053H23.438L25.098 37.0143L26.758 33.3053H27.387Z" fill="#0E264F"/>
<path d="M31.2796 37.8378C30.8603 37.8378 30.4778 37.7406 30.1319 37.546C29.7861 37.3472 29.5116 37.0727 29.3084 36.7225C29.1096 36.3681 29.0101 35.9704 29.0101 35.5294C29.0101 35.0885 29.1096 34.693 29.3084 34.3428C29.5116 33.9883 29.7861 33.7138 30.1319 33.5193C30.4778 33.3205 30.8603 33.221 31.2796 33.221C31.7033 33.221 32.088 33.3205 32.4338 33.5193C32.7797 33.7138 33.052 33.9862 33.2509 34.3363C33.4497 34.6865 33.5491 35.0842 33.5491 35.5294C33.5491 35.9747 33.4497 36.3724 33.2509 36.7225C33.052 37.0727 32.7797 37.3472 32.4338 37.546C32.088 37.7406 31.7033 37.8378 31.2796 37.8378ZM31.2796 37.3256C31.5952 37.3256 31.8783 37.2521 32.1291 37.1051C32.3841 36.9581 32.583 36.7485 32.7256 36.4761C32.8726 36.2038 32.9461 35.8882 32.9461 35.5294C32.9461 35.1663 32.8726 34.8507 32.7256 34.5827C32.583 34.3104 32.3863 34.1007 32.1356 33.9538C31.8848 33.8068 31.5995 33.7333 31.2796 33.7333C30.9597 33.7333 30.6744 33.8068 30.4237 33.9538C30.173 34.1007 29.9741 34.3104 29.8272 34.5827C29.6845 34.8507 29.6132 35.1663 29.6132 35.5294C29.6132 35.8882 29.6845 36.2038 29.8272 36.4761C29.9741 36.7485 30.173 36.9581 30.4237 37.1051C30.6788 37.2521 30.9641 37.3256 31.2796 37.3256Z" fill="#0E264F"/>
<path d="M37.5508 37.7924L36.4744 35.9444H35.7611V37.7924H35.1711V33.2729H36.63C36.9715 33.2729 37.259 33.3313 37.4924 33.448C37.7302 33.5647 37.9074 33.7225 38.0241 33.9213C38.1408 34.1202 38.1992 34.3471 38.1992 34.6022C38.1992 34.9134 38.1084 35.1879 37.9269 35.4257C37.7496 35.6634 37.4816 35.8212 37.1228 35.899L38.2576 37.7924H37.5508ZM35.7611 35.4711H36.63C36.9499 35.4711 37.1898 35.3933 37.3498 35.2376C37.5097 35.0777 37.5897 34.8659 37.5897 34.6022C37.5897 34.3342 37.5097 34.1267 37.3498 33.9797C37.1941 33.8327 36.9542 33.7592 36.63 33.7592H35.7611V35.4711Z" fill="#0E264F"/>
<path d="M46.0127 33.2729V37.7924H45.4227V35.7434H43.1207V37.7924H42.5307V33.2729H43.1207V35.2571H45.4227V33.2729H46.0127Z" fill="#0E264F"/>
<path d="M48.4533 33.7528V35.2636H50.1003V35.7499H48.4533V37.3061H50.2948V37.7924H47.8632V33.2664H50.2948V33.7528H48.4533Z" fill="#0E264F"/>
<path d="M54.7021 36.7874H52.7309L52.3678 37.7924H51.7453L53.3793 33.2989H54.0602L55.6877 37.7924H55.0653L54.7021 36.7874ZM54.5335 36.3075L53.7165 34.0251L52.8995 36.3075H54.5335Z" fill="#0E264F"/>
<path d="M57.8329 37.3126H59.4151V37.7924H57.2429V33.2729H57.8329V37.3126Z" fill="#0E264F"/>
<path d="M63.6664 33.2729V33.7528H62.4344V37.7924H61.8443V33.7528H60.6059V33.2729H63.6664Z" fill="#0E264F"/>
<path d="M68.7178 33.2729V37.7924H68.1277V35.7434H65.8258V37.7924H65.2357V33.2729H65.8258V35.2571H68.1277V33.2729H68.7178Z" fill="#0E264F"/>
<path d="M76.609 37.7924L76.0189 37.1959C75.7985 37.425 75.5629 37.5958 75.3121 37.7081C75.0614 37.8162 74.7783 37.8703 74.4627 37.8703C74.1515 37.8703 73.8748 37.8141 73.6327 37.7017C73.395 37.5893 73.2091 37.4293 73.0751 37.2218C72.9454 37.0143 72.8805 36.7723 72.8805 36.4956C72.8805 36.18 72.9692 35.9034 73.1464 35.6656C73.328 35.4235 73.5938 35.2333 73.944 35.095C73.8056 34.9307 73.7062 34.7794 73.6457 34.6411C73.5852 34.5028 73.5549 34.3515 73.5549 34.1872C73.5549 33.997 73.6025 33.8262 73.6976 33.6749C73.797 33.5193 73.9375 33.3983 74.119 33.3118C74.3006 33.2254 74.5103 33.1821 74.748 33.1821C74.9814 33.1821 75.1846 33.2275 75.3575 33.3183C75.5304 33.4091 75.6601 33.5366 75.7466 33.7009C75.833 33.8608 75.8719 34.0402 75.8633 34.2391H75.2732C75.2776 34.0618 75.2278 33.9235 75.1241 33.8241C75.0203 33.7203 74.8863 33.6685 74.7221 33.6685C74.5492 33.6685 74.4087 33.7182 74.3006 33.8176C74.1968 33.9127 74.145 34.0359 74.145 34.1872C74.145 34.3169 74.1796 34.4422 74.2487 34.5633C74.3222 34.6843 74.4432 34.8335 74.6118 35.0107L75.9606 36.3659L76.0773 36.1843L76.5182 35.4451H77.1537L76.622 36.3659C76.5485 36.4956 76.462 36.6318 76.3626 36.7744L77.3806 37.7924H76.609ZM74.4627 37.3645C74.6961 37.3645 74.9058 37.3191 75.0917 37.2283C75.2819 37.1375 75.4613 36.997 75.6299 36.8068L74.3006 35.4711C73.7473 35.6829 73.4706 36.0179 73.4706 36.4761C73.4706 36.7312 73.5614 36.943 73.743 37.1116C73.9288 37.2802 74.1688 37.3645 74.4627 37.3645Z" fill="#0E264F"/>
<path d="M85.9324 33.3053V37.7924H85.3424V34.4466L83.851 37.7924H83.436L81.9381 34.4401V37.7924H81.3481V33.3053H81.9835L83.6435 37.0143L85.3035 33.3053H85.9324Z" fill="#0E264F"/>
<path d="M88.3662 33.7528V35.2636H90.0132V35.7499H88.3662V37.3061H90.2077V37.7924H87.7761V33.2664H90.2077V33.7528H88.3662Z" fill="#0E264F"/>
<path d="M93.3506 33.2729C93.8434 33.2729 94.2692 33.3659 94.628 33.5517C94.9911 33.7333 95.2678 33.9948 95.458 34.3363C95.6525 34.6778 95.7498 35.0799 95.7498 35.5424C95.7498 36.0049 95.6525 36.407 95.458 36.7485C95.2678 37.0857 94.9911 37.345 94.628 37.5266C94.2692 37.7038 93.8434 37.7924 93.3506 37.7924H91.9435V33.2729H93.3506ZM93.3506 37.3061C93.9342 37.3061 94.3794 37.1527 94.6863 36.8457C94.9933 36.5345 95.1467 36.1 95.1467 35.5424C95.1467 34.9804 94.9911 34.5417 94.6798 34.2261C94.3729 33.9105 93.9298 33.7528 93.3506 33.7528H92.5336V37.3061H93.3506Z" fill="#0E264F"/>
<path d="M97.9611 33.2729V37.7924H97.371V33.2729H97.9611Z" fill="#0E264F"/>
<path d="M99.5892 35.5294C99.5892 35.0885 99.6887 34.693 99.8875 34.3428C100.086 33.9883 100.357 33.7117 100.698 33.5128C101.044 33.314 101.426 33.2146 101.846 33.2146C102.339 33.2146 102.769 33.3334 103.136 33.5712C103.504 33.8089 103.772 34.1461 103.94 34.5827H103.233C103.108 34.3104 102.926 34.1007 102.689 33.9538C102.455 33.8068 102.174 33.7333 101.846 33.7333C101.53 33.7333 101.247 33.8068 100.996 33.9538C100.746 34.1007 100.549 34.3104 100.406 34.5827C100.264 34.8507 100.192 35.1663 100.192 35.5294C100.192 35.8882 100.264 36.2038 100.406 36.4761C100.549 36.7442 100.746 36.9516 100.996 37.0986C101.247 37.2456 101.53 37.3191 101.846 37.3191C102.174 37.3191 102.455 37.2478 102.689 37.1051C102.926 36.9581 103.108 36.7485 103.233 36.4761H103.94C103.772 36.9084 103.504 37.2434 103.136 37.4812C102.769 37.7146 102.339 37.8313 101.846 37.8313C101.426 37.8313 101.044 37.7341 100.698 37.5396C100.357 37.3407 100.086 37.0662 99.8875 36.7161C99.6887 36.3659 99.5892 35.9704 99.5892 35.5294Z" fill="#0E264F"/>
<path d="M108.333 36.7874H106.362L105.999 37.7924H105.376L107.01 33.2989H107.691L109.319 37.7924H108.696L108.333 36.7874ZM108.164 36.3075L107.347 34.0251L106.53 36.3075H108.164Z" fill="#0E264F"/>
<path d="M111.464 37.3126H113.046V37.7924H110.874V33.2729H111.464V37.3126Z" fill="#0E264F"/>
<path d="M118.52 37.8378C118.222 37.8378 117.954 37.786 117.716 37.6822C117.483 37.5741 117.299 37.4272 117.165 37.2413C117.031 37.0511 116.962 36.8328 116.958 36.5864H117.586C117.608 36.7982 117.695 36.9776 117.846 37.1246C118.001 37.2672 118.226 37.3385 118.52 37.3385C118.801 37.3385 119.022 37.2694 119.182 37.131C119.346 36.9884 119.428 36.8068 119.428 36.5864C119.428 36.4135 119.38 36.273 119.285 36.1649C119.19 36.0568 119.071 35.9747 118.929 35.9185C118.786 35.8623 118.594 35.8018 118.352 35.7369C118.053 35.6591 117.813 35.5813 117.632 35.5035C117.455 35.4257 117.301 35.3046 117.172 35.1404C117.046 34.9718 116.983 34.747 116.983 34.466C116.983 34.2196 117.046 34.0013 117.172 33.8111C117.297 33.6209 117.472 33.4739 117.697 33.3702C117.926 33.2664 118.187 33.2146 118.481 33.2146C118.905 33.2146 119.251 33.3205 119.519 33.5323C119.791 33.7441 119.945 34.0251 119.979 34.3752H119.331C119.309 34.2023 119.218 34.051 119.058 33.9213C118.898 33.7873 118.687 33.7203 118.423 33.7203C118.177 33.7203 117.976 33.7852 117.82 33.9149C117.664 34.0402 117.586 34.2175 117.586 34.4466C117.586 34.6108 117.632 34.7448 117.723 34.8486C117.818 34.9523 117.932 35.0323 118.066 35.0885C118.205 35.1404 118.397 35.2009 118.643 35.2701C118.942 35.3522 119.182 35.4343 119.363 35.5165C119.545 35.5943 119.7 35.7175 119.83 35.8861C119.96 36.0503 120.025 36.2751 120.025 36.5604C120.025 36.7809 119.966 36.9884 119.85 37.1829C119.733 37.3774 119.56 37.5352 119.331 37.6563C119.102 37.7773 118.831 37.8378 118.52 37.8378Z" fill="#0E264F"/>
<path d="M122.326 33.7528V35.2636H123.973V35.7499H122.326V37.3061H124.167V37.7924H121.736V33.2664H124.167V33.7528H122.326Z" fill="#0E264F"/>
<path d="M128.283 37.7924L127.207 35.9444H126.493V37.7924H125.903V33.2729H127.362C127.704 33.2729 127.991 33.3313 128.225 33.448C128.462 33.5647 128.64 33.7225 128.756 33.9213C128.873 34.1202 128.931 34.3471 128.931 34.6022C128.931 34.9134 128.841 35.1879 128.659 35.4257C128.482 35.6634 128.214 35.8212 127.855 35.899L128.99 37.7924H128.283ZM126.493 35.4711H127.362C127.682 35.4711 127.922 35.3933 128.082 35.2376C128.242 35.0777 128.322 34.8659 128.322 34.6022C128.322 34.3342 128.242 34.1267 128.082 33.9797C127.926 33.8327 127.686 33.7592 127.362 33.7592H126.493V35.4711Z" fill="#0E264F"/>
<path d="M134.426 33.2729L132.721 37.7924H132.04L130.335 33.2729H130.964L132.384 37.17L133.804 33.2729H134.426Z" fill="#0E264F"/>
<path d="M136.506 33.2729V37.7924H135.916V33.2729H136.506Z" fill="#0E264F"/>
<path d="M138.134 35.5294C138.134 35.0885 138.234 34.693 138.433 34.3428C138.631 33.9883 138.902 33.7117 139.243 33.5128C139.589 33.314 139.972 33.2146 140.391 33.2146C140.884 33.2146 141.314 33.3334 141.681 33.5712C142.049 33.8089 142.317 34.1461 142.485 34.5827H141.778C141.653 34.3104 141.472 34.1007 141.234 33.9538C141 33.8068 140.719 33.7333 140.391 33.7333C140.075 33.7333 139.792 33.8068 139.541 33.9538C139.291 34.1007 139.094 34.3104 138.951 34.5827C138.809 34.8507 138.737 35.1663 138.737 35.5294C138.737 35.8882 138.809 36.2038 138.951 36.4761C139.094 36.7442 139.291 36.9516 139.541 37.0986C139.792 37.2456 140.075 37.3191 140.391 37.3191C140.719 37.3191 141 37.2478 141.234 37.1051C141.472 36.9581 141.653 36.7485 141.778 36.4761H142.485C142.317 36.9084 142.049 37.2434 141.681 37.4812C141.314 37.7146 140.884 37.8313 140.391 37.8313C139.972 37.8313 139.589 37.7341 139.243 37.5396C138.902 37.3407 138.631 37.0662 138.433 36.7161C138.234 36.3659 138.134 35.9704 138.134 35.5294Z" fill="#0E264F"/>
<path d="M144.797 33.7528V35.2636H146.444V35.7499H144.797V37.3061H146.638V37.7924H144.207V33.2664H146.638V33.7528H144.797Z" fill="#0E264F"/>
<path d="M19.9246 0.0385742H8.26847V8.08724H0V19.7425H8.26847V28.0118L19.9246 0.0385742Z" fill="url(#paint0_linear_1_6684)"/>
<path d="M28.5959 21.0182H18.3392L15.2619 28.012H31.5799L28.5959 21.0182Z" fill="white"/>
<path d="M23.3872 8.08743L23.374 8.05785L23.3612 8.08743L20.8564 14.0254H25.892L23.3872 8.08743Z" fill="white"/>
<defs>
<linearGradient id="paint0_linear_1_6684" x1="15.79" y1="28.012" x2="15.79" y2="0.0385742" gradientUnits="userSpaceOnUse">
<stop stop-color="#0C9AEE"/>
<stop offset="1" stop-color="#1C80E0"/>
</linearGradient>
</defs>
</svg>
