<svg width="70" height="70" viewBox="0 0 70 70" fill="none" xmlns="http://www.w3.org/2000/svg">
<g clip-path="url(#clip0_1_6892)">
<path d="M41.1168 38.6517C40.7232 38.7888 40.4325 39.1255 40.3545 39.535C40.2764 39.9445 40.4227 40.3646 40.7383 40.6369C41.0539 40.9093 41.4908 40.9926 41.8845 40.8555C51.5743 37.4973 57.4228 27.633 55.7201 17.5201C54.0173 7.40717 45.2611 0.00201416 35.0058 0.00201416C24.7505 0.00201416 15.9943 7.40717 14.2916 17.5201C12.5888 27.633 18.4373 37.4973 28.1272 40.8555C28.7361 41.0672 29.4012 40.7451 29.6129 40.1362C29.8246 39.5274 29.5026 38.8622 28.8937 38.6505C26.8766 37.9466 24.9957 36.9007 23.3333 35.5588V34.2883C23.3286 30.6489 25.5695 27.3839 28.9672 26.0797C32.5815 28.6403 37.4185 28.6403 41.0328 26.0797C44.4305 27.3839 46.6714 30.6489 46.6667 34.2883V35.5635C45.0072 36.9031 43.13 37.9477 41.1168 38.6517ZM26.8333 17.5C26.8333 12.9897 30.4897 9.33333 35 9.33333C39.5103 9.33333 43.1667 12.9897 43.1667 17.5C43.1667 22.0103 39.5103 25.6667 35 25.6667C30.4918 25.6615 26.8385 22.0082 26.8333 17.5ZM42.9333 24.3518C46.6014 20.1154 46.2963 13.7452 42.2402 9.87869C38.1841 6.0122 31.8066 6.0122 27.7505 9.87869C23.6944 13.7452 23.3893 20.1154 27.0573 24.3518C23.622 26.1082 21.3433 29.5205 21.0373 33.3667C14.3867 25.8712 14.8406 14.4619 22.0657 7.51849C29.2908 0.575102 40.7092 0.575102 47.9343 7.51849C55.1594 14.4619 55.6133 25.8712 48.9627 33.3667C48.6557 29.5183 46.3729 26.1051 42.9333 24.3518Z" fill="white"/>
<path d="M24.9668 69.5462C25.6801 70.0726 26.6315 70.1455 27.4168 69.734L35.0083 65.7895L42.5986 69.7351C43.3857 70.1444 44.3369 70.0718 45.0528 69.5479C45.7688 69.024 46.1257 68.1394 45.9738 67.2653L44.5318 58.9446L50.6334 53.0635C51.2744 52.4455 51.5079 51.5166 51.2352 50.669C50.9625 49.8214 50.2312 49.2029 49.3501 49.0746L40.8801 47.8578L37.1001 40.2593C36.7076 39.4636 35.8954 38.9617 35.0083 38.9666C34.1237 38.9634 33.3142 39.4634 32.9211 40.2558L29.1201 47.8578L20.6688 49.0735C19.7871 49.2014 19.0553 49.8201 18.7825 50.6682C18.5098 51.5162 18.7437 52.4456 19.3854 53.0635L25.4894 58.9446L24.0463 67.2653C23.8921 68.139 24.2493 69.0242 24.9668 69.5462ZM21.0001 51.3835L30.0558 50.0803C30.4341 50.026 30.7619 49.7898 30.9331 49.448L35.0071 41.3L39.0636 49.4456C39.2344 49.7886 39.5628 50.0259 39.9421 50.0803L49.0164 51.3835L42.4668 57.694C42.1882 57.9627 42.061 58.3521 42.1273 58.7335L43.6754 67.6666L35.5473 63.4422C35.2101 63.267 34.8088 63.267 34.4716 63.4422L26.3423 67.6666L27.8904 58.7358C27.9567 58.3545 27.8295 57.965 27.5509 57.6963L21.0001 51.3835Z" fill="white"/>
<path d="M5.48353 51.5923L4.3437 58.1828C4.23368 58.7973 4.40115 59.4289 4.80114 59.9081C5.20113 60.3874 5.79265 60.6651 6.41686 60.6667C6.75768 60.6661 7.09337 60.5837 7.3957 60.4263L13.4169 57.2927L19.4345 60.4333C19.8042 60.6259 20.2486 60.6066 20.6002 60.3827C20.9518 60.1588 21.1573 59.7643 21.1392 59.3479C21.1211 58.9314 20.8822 58.5562 20.5125 58.3637L13.9559 54.9453C13.6181 54.7694 13.2157 54.7694 12.8779 54.9453L6.72136 58.1525L7.88803 51.3858C7.95432 51.0045 7.82714 50.6151 7.54853 50.3463L2.5937 45.563L9.4502 44.5783C9.82881 44.5238 10.1566 44.2871 10.3275 43.9448L13.4169 37.7685L16.4945 43.9437C16.6656 44.287 16.9945 44.5242 17.3742 44.5783L24.6997 45.6283C25.3376 45.7195 25.9286 45.2763 26.0198 44.6384C26.111 44.0005 25.6678 43.4095 25.0299 43.3183L18.3099 42.3558L15.3034 36.3218C14.9472 35.604 14.2136 35.1514 13.4122 35.1552H13.4052C12.6126 35.1536 11.8883 35.6036 11.5385 36.3148L8.51686 42.3558L1.8167 43.3172C1.01457 43.4241 0.345257 43.9824 0.0961685 44.7524C-0.15292 45.5223 0.0625421 46.3668 0.650031 46.9233L5.48353 51.5923Z" fill="white"/>
<path d="M69.8951 44.7487C69.6516 43.9827 68.9883 43.4258 68.1918 43.3183L61.4834 42.3558L58.4688 36.316C58.1202 35.6028 57.396 35.1502 56.6021 35.1493H56.5951C55.7933 35.1451 55.0591 35.5977 54.7028 36.316L51.6974 42.3488L44.9763 43.3113C44.5636 43.3703 44.2138 43.6449 44.0586 44.0318C43.9033 44.4186 43.9662 44.8589 44.2236 45.1868C44.481 45.5147 44.8938 45.6803 45.3064 45.6213L52.6331 44.5713C53.0128 44.5172 53.3417 44.2799 53.5128 43.9367L56.5834 37.7685L59.6669 43.9448C59.8378 44.287 60.1657 44.5238 60.5443 44.5783L67.3973 45.5618L62.4424 50.3452C62.1638 50.6139 62.0367 51.0033 62.1029 51.3847L63.2754 58.1513L57.1189 54.9407C56.7812 54.7647 56.3787 54.7647 56.0409 54.9407L49.4843 58.359C49.1146 58.5516 48.8757 58.9267 48.8576 59.3432C48.8395 59.7597 49.045 60.1541 49.3966 60.378C49.7482 60.6019 50.1926 60.6212 50.5623 60.4287L56.5834 57.2927L62.6034 60.4333C63.316 60.8035 64.1769 60.7371 64.8242 60.2619C65.4715 59.7867 65.7928 58.9852 65.6531 58.1945L64.5168 51.5923L69.3538 46.9257C69.9392 46.3652 70.1498 45.518 69.8951 44.7487Z" fill="white"/>
<path d="M28.5835 54.9955C28.6398 54.9952 28.6959 54.9909 28.7515 54.9827L33.1394 54.3515C33.5178 54.2972 33.8455 54.061 34.0167 53.7192L36.0467 49.6603C36.3367 49.0837 36.1042 48.3811 35.5275 48.0912C34.9509 47.8012 34.2483 48.0337 33.9584 48.6103L32.2084 52.1232L28.4225 52.668C27.8161 52.7544 27.3798 53.2951 27.4234 53.9061C27.467 54.517 27.9757 54.9903 28.5882 54.9897L28.5835 54.9955Z" fill="white"/>
</g>
<defs>
<clipPath id="clip0_1_6892">
<rect width="70" height="70" fill="white"/>
</clipPath>
</defs>
</svg>
