<svg width="70" height="70" viewBox="0 0 70 70" fill="none" xmlns="http://www.w3.org/2000/svg">
<path d="M67.2844 42.268L67.2691 42.2417C66.5687 41.1754 65.4996 40.405 64.2665 40.0778C63.0335 39.7507 61.7231 39.8899 60.5862 40.4687L53.5775 44.053C52.738 42.8745 51.503 42.0369 50.0976 41.693C48.6922 41.3491 47.21 41.5217 45.9212 42.1794L37.0947 46.7031C36.6343 46.9403 36.1233 47.0625 35.6054 47.0593C35.0876 47.056 34.5782 46.9274 34.1208 46.6845L28.1051 43.4908C25.8286 42.2755 23.2598 41.7147 20.6839 41.8707C18.1079 42.0267 15.6256 42.8934 13.5123 44.3745L12.8331 41.1348C12.8035 40.9938 12.7463 40.8601 12.6648 40.7412C12.5833 40.6224 12.4792 40.5209 12.3584 40.4424C12.2375 40.3639 12.1024 40.3101 11.9607 40.284C11.819 40.258 11.6735 40.2602 11.5326 40.2905L3.05062 42.1203C2.76827 42.1812 2.52147 42.3513 2.3641 42.5935C2.20673 42.8358 2.15155 43.1304 2.21062 43.4131L7.1489 66.943C7.19925 67.1896 7.33316 67.4114 7.52804 67.5708C7.72291 67.7302 7.96682 67.8175 8.21858 67.818C8.29576 67.8176 8.3727 67.8095 8.44827 67.7939L16.9347 65.9673C17.2173 65.9064 17.4642 65.7362 17.6216 65.4937C17.779 65.2512 17.8341 64.9563 17.7747 64.6734L17.3372 62.568L20.2367 61.9434C21.0818 61.7627 21.9517 61.7294 22.8081 61.845L36.445 63.3401C39.2763 63.7146 42.1468 63.0408 44.5158 61.4458L66.3612 46.7895C67.0755 46.306 67.5721 45.5621 67.7447 44.7169C67.9172 43.8718 67.752 42.9928 67.2844 42.268ZM9.06296 65.4183L4.57858 44.03L10.9223 42.6628L15.4067 64.0522L9.06296 65.4183ZM65.1439 44.9761L43.2984 59.6323C41.3614 60.9316 39.0156 61.4764 36.7042 61.1636L23.0673 59.6684C21.9699 59.5205 20.8551 59.5649 19.773 59.7997L16.8833 60.4209L14.0001 46.7031L14.7472 46.1825C16.531 44.9273 18.6281 44.1917 20.8052 44.0577C22.9823 43.9237 25.1538 44.3965 27.0781 45.4234L33.0937 48.6172C33.8625 49.0258 34.7188 49.2423 35.5893 49.2482C36.4599 49.2541 37.319 49.0492 38.0933 48.6511L46.922 44.1219C47.8046 43.6708 48.8266 43.5757 49.7772 43.8562C50.7278 44.1366 51.5345 44.7712 52.0309 45.6291C52.1766 45.8802 52.2177 46.1786 52.1452 46.4598C52.0728 46.741 51.8927 46.9824 51.6437 47.1319L39.4725 54.3506C37.3445 55.6198 34.8097 56.0212 32.3937 55.4717L21.4169 52.8467L20.9094 54.9751L31.8961 57.6001C34.8615 58.2796 37.9748 57.7896 40.5881 56.2319L52.7594 49.0131C53.258 48.7138 53.6681 48.2875 53.9477 47.7776C54.2273 47.2677 54.3664 46.6927 54.3508 46.1114L61.5783 42.4134C62.2327 42.0811 62.9866 42.001 63.6963 42.1883C64.406 42.3757 65.022 42.8174 65.4272 43.4295L65.4392 43.4481C65.5968 43.6917 65.6541 43.9867 65.599 44.2715C65.544 44.5563 65.3809 44.8088 65.1439 44.9761Z" fill="white"/>
<path d="M9.26774 45.2606L7.12695 45.7102L7.57616 47.8489L9.71694 47.3992L9.26774 45.2606Z" fill="white"/>
<path d="M34.3561 43.54C34.5432 43.6764 34.7688 43.7499 35.0003 43.7499C35.2318 43.7499 35.4574 43.6764 35.6445 43.54C46.6192 35.5349 53.3753 27.9016 55.8297 20.7813H61.4515C61.7095 21.511 62.2172 22.1261 62.8849 22.5177C63.5525 22.9094 64.3371 23.0524 65.1 22.9215C65.8629 22.7906 66.5549 22.3942 67.0538 21.8025C67.5527 21.2107 67.8264 20.4615 67.8264 19.6875C67.8264 18.9135 67.5527 18.1644 67.0538 17.5726C66.5549 16.9808 65.8629 16.5844 65.1 16.4535C64.3371 16.3226 63.5525 16.4656 62.8849 16.8573C62.2172 17.2489 61.7095 17.864 61.4515 18.5938H56.4378C56.6241 17.7875 56.7539 16.9692 56.8261 16.1449C57.0193 14.4839 56.8753 12.801 56.4028 11.197C55.9304 9.59295 55.1391 8.10074 54.0764 6.80969C52.9978 5.37269 51.5992 4.20678 49.9915 3.40446C48.3838 2.60214 46.6113 2.18547 44.8145 2.18751C41.2032 2.32871 37.7453 3.68446 35.0003 6.03532C32.2553 3.68446 28.7974 2.32871 25.1861 2.18751C23.389 2.18555 21.6162 2.60225 20.0082 3.40455C18.4002 4.20685 17.0011 5.37271 15.922 6.80969C14.8598 8.10102 14.069 9.59328 13.5967 11.1973C13.1244 12.8012 12.9805 14.484 13.1734 16.1449C13.8329 24.5503 20.9598 33.7684 34.3561 43.54ZM64.5315 18.5938C64.7479 18.5938 64.9593 18.6579 65.1392 18.7781C65.3191 18.8983 65.4593 19.0691 65.542 19.2689C65.6248 19.4688 65.6465 19.6887 65.6043 19.9009C65.5621 20.1131 65.4579 20.3079 65.3049 20.4609C65.152 20.6139 64.9571 20.718 64.7449 20.7602C64.5328 20.8024 64.3128 20.7808 64.113 20.698C63.9131 20.6152 63.7423 20.475 63.6221 20.2952C63.5019 20.1153 63.4378 19.9038 63.4378 19.6875C63.4378 19.3974 63.553 19.1192 63.7581 18.9141C63.9633 18.709 64.2415 18.5938 64.5315 18.5938ZM17.5484 8.27204C17.5995 8.22144 17.6454 8.16573 17.6851 8.10579C18.5622 6.94665 19.6959 6.00654 20.9973 5.35923C22.2988 4.71192 23.7325 4.37503 25.1861 4.37501C30.2545 4.37501 34.1876 8.23485 34.227 8.27313C34.3286 8.37483 34.4492 8.4555 34.582 8.51054C34.7148 8.56558 34.8571 8.59391 35.0008 8.59391C35.1446 8.59391 35.2869 8.56558 35.4197 8.51054C35.5525 8.4555 35.6731 8.37483 35.7747 8.27313C35.814 8.23266 39.7187 4.37501 44.8145 4.37501C46.269 4.36952 47.7047 4.70398 49.007 5.35172C50.3093 5.99946 51.4422 6.94256 52.3154 8.10579C52.3552 8.16573 52.401 8.22144 52.4522 8.27204C53.3193 9.33993 53.9609 10.5726 54.338 11.8955C54.7151 13.2185 54.82 14.6041 54.6462 15.9688C54.5735 16.8551 54.4234 17.7335 54.1978 18.5938H45.4784L41.4184 11.4844C41.3167 11.3048 41.1662 11.1577 40.9844 11.06C40.8026 10.9623 40.5969 10.918 40.391 10.9323C40.1851 10.9466 39.9874 11.0189 39.8208 11.1408C39.6543 11.2626 39.5256 11.4292 39.4497 11.6211L34.0411 25.1563L30.5761 13.8972C30.514 13.6952 30.3947 13.5156 30.2326 13.38C30.0706 13.2444 29.8727 13.1586 29.663 13.133C29.4533 13.1075 29.2406 13.1432 29.0507 13.2359C28.8609 13.3286 28.7019 13.4744 28.5931 13.6555L25.6301 18.5938H18.594V20.7813H26.2503C26.439 20.7812 26.6245 20.7324 26.7888 20.6394C26.953 20.5464 27.0904 20.4126 27.1876 20.2508L29.2034 16.8853L32.8576 28.7591C32.9251 28.9743 33.0575 29.1634 33.2367 29.3005C33.4159 29.4375 33.633 29.5159 33.8584 29.5247H33.9065C34.1253 29.5248 34.339 29.4593 34.5202 29.3366C34.7013 29.214 34.8415 29.0399 34.9226 28.8367L40.6429 14.5338L43.8947 20.2213C43.9892 20.3903 44.1269 20.5312 44.2937 20.6296C44.4605 20.728 44.6504 20.7803 44.844 20.7813H53.4847C51.4601 25.935 46.4245 32.8475 35.0003 41.2989C19.5883 29.8977 15.8039 21.2931 15.3609 16.0563C15.174 14.6781 15.2717 13.2763 15.648 11.9375C16.0242 10.5986 16.671 9.35108 17.5484 8.27204Z" fill="white"/>
<path d="M10.9375 18.5938H2.1875V20.7812H10.9375V18.5938Z" fill="white"/>
</svg>
