<svg width="51" height="50" viewBox="0 0 51 50" fill="none" xmlns="http://www.w3.org/2000/svg">
<path d="M19.7729 25.7891C20.0297 25.7891 20.2679 25.6523 20.4003 25.4287L21.7217 23.199L23.4727 26.0257C23.6096 26.2468 23.8489 26.3781 24.1079 26.3733C24.3651 26.3678 24.6005 26.2258 24.7282 25.999L27.5471 20.9952L31.3331 28.0044C31.4594 28.2384 31.6995 28.3857 31.9622 28.3904C31.9665 28.3904 31.9708 28.3905 31.9751 28.3905C32.2329 28.3905 32.4721 28.2527 32.6043 28.0272L34.963 24.0047H40.6508C41.0552 24.0047 41.3832 23.6715 41.3832 23.2606C41.3832 22.8496 41.0552 22.5165 40.6508 22.5165H34.5468C34.2887 22.5165 34.0497 22.6545 33.9176 22.8798L32.0012 26.148L28.2027 19.1154C28.0751 18.8794 27.8322 18.7317 27.5671 18.7292C27.5649 18.7292 27.5627 18.7292 27.5605 18.7292C27.298 18.7292 27.0554 18.872 26.9248 19.1037L24.0627 24.1842L22.3278 21.3834C22.1936 21.1668 21.9595 21.0357 21.7078 21.0357C21.7055 21.0357 21.703 21.0357 21.7006 21.0357C21.4463 21.0382 21.2115 21.1746 21.0804 21.3959L19.3589 24.3009H15.1963C14.7918 24.3009 14.4639 24.634 14.4639 25.045C14.4639 25.4559 14.7918 25.7891 15.1963 25.7891H19.7729Z" fill="#0E264F"/>
<path d="M41.9436 5.13757C41.5391 5.13757 41.2111 5.47072 41.2111 5.88165V8.07658H39.0508C38.6463 8.07658 38.3184 8.40973 38.3184 8.82066C38.3184 9.23159 38.6463 9.56473 39.0508 9.56473H41.2111V11.7598C41.2111 12.1707 41.5391 12.5038 41.9436 12.5038C42.3481 12.5038 42.676 12.1707 42.676 11.7598V9.56473H44.8363C45.2408 9.56473 45.5688 9.23159 45.5688 8.82066C45.5688 8.40973 45.2408 8.07658 44.8363 8.07658H42.676V5.88165C42.676 5.47072 42.3481 5.13757 41.9436 5.13757Z" fill="#0E264F"/>
<path d="M44.5284 30.6312C48.0967 26.7557 49.1194 20.8955 47.1579 15.8715C49.2627 14.2599 50.6261 11.6992 50.6261 8.82069C50.6261 3.9569 46.7314 0 41.9441 0C39.9775 0 38.0519 0.685642 36.5216 1.93063C36.2059 2.18749 36.1549 2.65576 36.4077 2.97651C36.6605 3.29715 37.1215 3.34904 37.4372 3.09219C38.7271 2.04274 40.2855 1.48815 41.944 1.48815C45.9235 1.48815 49.1612 4.77757 49.1612 8.82069C49.1612 12.8655 45.9236 16.1561 41.944 16.1561C38.2386 16.1561 35.1777 13.305 34.7713 9.64899C34.7705 9.64056 34.7691 9.63203 34.7681 9.6235C34.7396 9.3597 34.7239 9.09203 34.7239 8.82069C34.7239 7.67223 34.9779 6.57397 35.4787 5.55627C35.6596 5.1887 35.5129 4.74176 35.1512 4.55792C34.7891 4.37428 34.3494 4.5232 34.1684 4.89067C33.565 6.11681 33.2591 7.43909 33.2591 8.82059C33.2591 8.94559 33.2623 9.0698 33.2674 9.19362C31.418 9.86517 29.6917 10.9697 28.245 12.4151L27.4354 13.2236C27.4315 13.2197 27.4286 13.2167 27.4247 13.2127L26.6288 12.4161C24.0536 9.8366 20.6825 8.39508 17.3788 8.46452C14.6297 8.52206 12.1971 9.61635 10.3446 11.6283C10.0682 11.9289 10.0838 12.4002 10.3797 12.681C10.6756 12.9607 11.1385 12.9459 11.4149 12.6452C12.991 10.9329 15.0633 10.0013 17.409 9.95268C20.3192 9.89216 23.3046 11.1769 25.6005 13.4756L26.3973 14.2733C26.7821 14.6582 27.1102 14.8497 27.4374 14.8497C27.7616 14.8497 28.0848 14.6612 28.4628 14.2842L29.2723 13.4756C30.4888 12.2609 31.9237 11.315 33.4598 10.7084C34.3131 14.6696 37.7927 17.6442 41.9439 17.6442C43.3651 17.6442 44.7075 17.2953 45.8928 16.6774C47.5157 21.1122 46.5839 26.2141 43.4638 29.6081L32.9493 40.5423L32.0792 40.7149C31.8682 40.7566 31.6817 40.7943 31.5118 40.829C30.4083 41.0562 30.1446 41.1098 28.8526 40.9074L22.5879 39.7436C21.7344 39.444 21.8204 38.7535 21.8682 38.5462C21.9434 38.2237 22.2383 37.7029 22.8721 37.8001C22.878 37.8011 22.8838 37.8021 22.8897 37.8031C23.1719 37.8398 23.4747 37.8795 23.7911 37.9202C24.9776 38.0759 26.3214 38.2515 27.5147 38.3755C29.9561 38.6265 31.337 37.3249 31.6241 35.9221C31.9161 34.4924 31.1143 32.5916 28.6632 31.7969C28.6339 31.788 28.6036 31.78 28.5723 31.7741L24.5381 31.0221C22.3487 30.6143 20.6456 30.9288 18.0674 31.405C17.3858 31.531 16.6123 31.6729 15.751 31.8167L13.8389 32.1362L13.25 31.5241L11.4092 29.6093C7.96877 25.8621 7.20607 19.9929 9.55764 15.333C9.74221 14.9679 9.59963 14.5194 9.24026 14.3319C8.8799 14.1444 8.4385 14.2883 8.25393 14.6544C5.62501 19.8649 6.48439 26.4346 10.3448 30.6312C10.3487 30.6351 10.3526 30.6391 10.3555 30.6431L12.0742 32.4309L8.87326 32.9654V32.8805C8.87326 32.3059 8.37434 31.8386 7.76105 31.8386H1.73535C1.12363 31.8386 0.625977 32.3059 0.625977 32.8805V45.9728C0.625977 46.5473 1.12363 47.0147 1.73535 47.0147H7.76115C8.37443 47.0147 8.87336 46.5473 8.87336 45.9728V45.8826L15.46 47.7033L21.5401 49.3819C22.9278 49.8194 24.046 50 25.0665 50C26.6817 50 28.0538 49.5496 29.8663 48.9543C30.0274 48.9017 30.1925 48.8472 30.3624 48.7916L42.3439 44.8887C43.7325 44.4363 44.7208 43.4204 44.9864 42.1713C45.1925 41.203 44.9054 40.2466 44.2179 39.6127C43.6612 39.0998 42.3526 38.3636 39.8302 39.1742L35.4806 40.0383L44.5177 30.6431C44.5216 30.6391 44.5245 30.6351 44.5284 30.6312ZM2.09082 45.5265V33.3266H7.40842V33.8379C7.40842 33.8394 7.40822 33.8409 7.40822 33.8425V44.9084C7.40822 44.9093 7.40842 44.9101 7.40842 44.911V45.5265H2.09082ZM40.2355 40.6048C41.587 40.1643 42.6798 40.204 43.2345 40.7149C43.5333 40.9907 43.6505 41.4074 43.5548 41.8558C43.4005 42.5791 42.7804 43.1833 41.8966 43.471L29.9141 47.3749C29.7432 47.4305 29.5772 47.485 29.4151 47.5386C26.5489 48.4791 25.1104 48.9523 21.962 47.9573C21.9542 47.9543 21.9454 47.9523 21.9366 47.9493L8.87326 44.3402V34.4736L15.9883 33.286C16.8614 33.1402 17.6416 32.9954 18.3301 32.8684C20.835 32.406 22.3477 32.1273 24.2735 32.4864L28.2608 33.2295C29.8155 33.7484 30.3516 34.8288 30.1895 35.6195C30.003 36.5332 29.0108 37.0342 27.6632 36.8953C26.4893 36.7733 25.1553 36.5987 23.9786 36.4449C23.6641 36.4032 23.3624 36.3635 23.0821 36.3278C21.6817 36.1175 20.6944 37.1126 20.4424 38.2069C20.3887 38.44 20.3672 38.688 20.3829 38.9381C20.4366 39.8429 20.9688 40.7814 22.1836 41.1752C22.2139 41.1852 22.6182 41.2616 22.6182 41.2616L28.5997 42.3727C28.6055 42.3737 28.6124 42.3747 28.6192 42.3757C29.8536 42.5711 30.3878 42.5543 31.1446 42.4184C31.3429 42.3826 32.1515 42.216 32.3595 42.1753L33.6778 41.9134C33.6778 41.9134 40.2081 40.6137 40.2355 40.6048Z" fill="#0E264F"/>
</svg>
