<svg width="16" height="16" viewBox="0 0 16 16" fill="none" xmlns="http://www.w3.org/2000/svg">
<path d="M15.8616 4.65603C15.8245 3.81456 15.6883 3.23607 15.4933 2.73479C15.292 2.2027 14.9825 1.72631 14.5769 1.33029C14.1807 0.928112 13.7008 0.615599 13.1746 0.41765C12.6701 0.222723 12.0943 0.086648 11.2523 0.0495476C10.404 0.00930528 10.1347 0 7.98331 0C5.83187 0 5.56258 0.00930528 4.71746 0.0464056C3.87548 0.0835059 3.29663 0.219701 2.79517 0.414508C2.26263 0.615599 1.78596 0.92497 1.3897 1.33029C0.987271 1.72631 0.674689 2.20584 0.476499 2.73177C0.281452 3.23607 0.145294 3.81142 0.108172 4.65289C0.0679047 5.50063 0.0585938 5.76976 0.0585938 7.91989C0.0585938 10.07 0.0679047 10.3391 0.105028 11.1837C0.142151 12.0252 0.278429 12.6037 0.473475 13.105C0.674689 13.6371 0.987271 14.1135 1.3897 14.5095C1.78596 14.9117 2.26577 15.2242 2.79202 15.4221C3.29663 15.6171 3.87234 15.7531 4.71444 15.7902C5.55943 15.8275 5.82885 15.8366 7.98028 15.8366C10.1317 15.8366 10.401 15.8275 11.2461 15.7902C12.0881 15.7531 12.667 15.6171 13.1684 15.4221C14.2334 15.0106 15.0754 14.1692 15.4871 13.105C15.682 12.6007 15.8183 12.0252 15.8554 11.1837C15.8925 10.3391 15.9019 10.07 15.9019 7.91989C15.9019 5.76976 15.8987 5.50063 15.8616 4.65603ZM14.4346 11.1219C14.4005 11.8953 14.2705 12.313 14.1622 12.5914C13.8959 13.2813 13.348 13.8289 12.6576 14.095C12.379 14.2033 11.9581 14.3332 11.1872 14.3671C10.3514 14.4043 10.1008 14.4135 7.98645 14.4135C5.87214 14.4135 5.61832 14.4043 4.78554 14.3671C4.01164 14.3332 3.59373 14.2033 3.31513 14.095C2.97159 13.9681 2.65889 13.767 2.40508 13.504C2.14195 13.2472 1.94074 12.9379 1.81377 12.5945C1.70542 12.3161 1.57543 11.8953 1.54145 11.125C1.50421 10.2897 1.49502 10.0391 1.49502 7.92605C1.49502 5.81303 1.50421 5.55937 1.54145 4.72721C1.57543 3.95378 1.70542 3.53613 1.81377 3.2577C1.94074 2.91425 2.14195 2.60186 2.40822 2.34807C2.66506 2.08511 2.97462 1.88402 3.31828 1.75725C3.59688 1.64897 4.01793 1.51906 4.78868 1.48498C5.62449 1.44788 5.87528 1.43857 7.98947 1.43857C10.1069 1.43857 10.3576 1.44788 11.1904 1.48498C11.9643 1.51906 12.3822 1.64897 12.6608 1.75725C13.0043 1.88402 13.317 2.08511 13.5708 2.34807C13.834 2.60488 14.0352 2.91425 14.1622 3.2577C14.2705 3.53613 14.4005 3.9568 14.4346 4.72721C14.4717 5.56251 14.481 5.81303 14.481 7.92605C14.481 10.0391 14.4717 10.2866 14.4346 11.1219Z" fill="#DDE1ED"/>
<path d="M7.98336 3.85156C5.73604 3.85156 3.91266 5.67371 3.91266 7.91979C3.91266 10.1659 5.73604 11.988 7.98336 11.988C10.2308 11.988 12.0541 10.1659 12.0541 7.91979C12.0541 5.67371 10.2308 3.85156 7.98336 3.85156ZM7.98336 10.5587C6.52541 10.5587 5.3428 9.37697 5.3428 7.91979C5.3428 6.4626 6.52541 5.28083 7.98336 5.28083C9.44143 5.28083 10.6239 6.4626 10.6239 7.91979C10.6239 9.37697 9.44143 10.5587 7.98336 10.5587Z" fill="#DDE1ED"/>
<path d="M13.1664 3.69047C13.1664 4.21495 12.7407 4.64021 12.2155 4.64021C11.6904 4.64021 11.2647 4.21495 11.2647 3.69047C11.2647 3.16587 11.6904 2.74072 12.2155 2.74072C12.7407 2.74072 13.1664 3.16587 13.1664 3.69047Z" fill="#DDE1ED"/>
</svg>
