<svg width="16" height="15" viewBox="0 0 16 15" fill="none" xmlns="http://www.w3.org/2000/svg">
<path d="M15.8238 14.9292L15.8275 14.9285V9.48364C15.8275 6.81996 15.2537 4.76807 12.1378 4.76807C10.6399 4.76807 9.63464 5.58956 9.22426 6.36838H9.18093V5.01674H6.22656V14.9285H9.30287V10.0206C9.30287 8.72833 9.54798 7.47876 11.1493 7.47876C12.727 7.47876 12.7506 8.9535 12.7506 10.1035V14.9292H15.8238Z" fill="#DDE1ED"/>
<path d="M1.21729 5.01807H4.2973V14.9299H1.21729V5.01807Z" fill="#DDE1ED"/>
<path d="M2.75605 0.0830078C1.77126 0.0830078 0.972168 0.881618 0.972168 1.86581C0.972168 2.85 1.77126 3.66531 2.75605 3.66531C3.74084 3.66531 4.53994 2.85 4.53994 1.86581C4.53932 0.881618 3.74022 0.0830078 2.75605 0.0830078Z" fill="#DDE1ED"/>
</svg>
