<svg width="15" height="18" viewBox="0 0 15 18" fill="none" xmlns="http://www.w3.org/2000/svg">
<path d="M14 7.54545C14 12.6364 7.5 17 7.5 17C7.5 17 1 12.6364 1 7.54545C1 5.80949 1.68482 4.14463 2.90381 2.91712C4.12279 1.68961 5.77609 1 7.5 1C9.22391 1 10.8772 1.68961 12.0962 2.91712C13.3152 4.14463 14 5.80949 14 7.54545Z" stroke="#424B5C" stroke-width="1.5" stroke-linecap="round" stroke-linejoin="round"/>
<path d="M7.50065 9.72728C8.69727 9.72728 9.66732 8.75045 9.66732 7.54547C9.66732 6.34048 8.69727 5.36365 7.50065 5.36365C6.30403 5.36365 5.33398 6.34048 5.33398 7.54547C5.33398 8.75045 6.30403 9.72728 7.50065 9.72728Z" stroke="#424B5C" stroke-width="1.5" stroke-linecap="round" stroke-linejoin="round"/>
</svg>
