<svg width="22" height="22" viewBox="0 0 22 22" fill="none" xmlns="http://www.w3.org/2000/svg">
<path d="M10.2786 11.0143H20.2786" stroke="white" stroke-width="1.5" stroke-linecap="round" stroke-linejoin="round"/>
<path d="M17.4214 8.15714L20.2786 11.0143L17.4214 13.8714" stroke="white" stroke-width="1.5" stroke-linecap="round" stroke-linejoin="round"/>
<path d="M17.7071 17.4286C16.4243 18.7656 14.7709 19.6884 12.9594 20.078C11.1479 20.4677 9.26123 20.3065 7.5421 19.6152C5.82297 18.9239 4.34997 17.7341 3.31257 16.1988C2.27518 14.6635 1.72083 12.8529 1.72083 11C1.72083 9.14707 2.27518 7.33651 3.31257 5.80121C4.34997 4.26591 5.82297 3.07608 7.5421 2.38477C9.26123 1.69345 11.1479 1.53227 12.9594 1.92195C14.7709 2.31163 16.4243 3.23435 17.7071 4.57143" stroke="white" stroke-width="1.5" stroke-linecap="round" stroke-linejoin="round"/>
</svg>
