<svg width="203" height="54" viewBox="0 0 203 54" fill="none" xmlns="http://www.w3.org/2000/svg">
<path d="M26.6306 0H11.0514V10.7576H0V26.3356H11.0514V37.3882L26.6306 0Z" fill="url(#paint0_linear_1_7250)"/>
<path d="M38.2206 28.0406H24.5118L20.3988 37.3882H42.2089L38.2206 28.0406Z" fill="#0E264F"/>
<path d="M31.2586 10.7576L31.241 10.7181L31.2239 10.7576L27.8761 18.6941H34.6064L31.2586 10.7576Z" fill="#0E264F"/>
<path d="M76.3406 10.8742C76.9106 10.8742 77.1955 11.1591 77.1955 11.7291V15.7186C77.1955 16.2886 76.9106 16.5736 76.3406 16.5736H63.7069C62.6937 16.5736 61.8546 16.6685 61.1897 16.8585C60.5248 17.0168 59.9865 17.3018 59.5749 17.7134C59.1949 18.0934 58.9258 18.6317 58.7675 19.3283C58.6091 19.9932 58.53 20.8164 58.53 21.798V35.904C58.53 36.6006 58.1817 36.9489 57.4851 36.9489H52.8306C52.1023 36.9489 51.7382 36.6006 51.7382 35.904V20.5156C51.7382 18.8058 51.9282 17.3493 52.3081 16.1461C52.6881 14.9112 53.3055 13.9138 54.1604 13.1539C55.047 12.3623 56.2027 11.7924 57.6276 11.4441C59.0841 11.0641 60.8889 10.8742 63.042 10.8742H76.3406Z" fill="#0E264F"/>
<path d="M116.44 10.8742C118.561 10.8742 120.334 11.0641 121.759 11.4441C123.216 11.7924 124.387 12.3623 125.274 13.1539C126.16 13.9138 126.778 14.9112 127.126 16.1461C127.506 17.3493 127.696 18.8058 127.696 20.5156V35.904C127.696 36.6006 127.348 36.9489 126.651 36.9489H121.997C121.3 36.9489 120.952 36.6006 120.952 35.904V22.1305C120.952 21.1489 120.889 20.3257 120.762 19.6607C120.635 18.9641 120.398 18.4259 120.049 18.0459C119.701 17.6343 119.21 17.3493 118.577 17.191C117.944 17.001 117.105 16.906 116.06 16.906H107.701V35.904C107.701 36.6006 107.337 36.9489 106.608 36.9489H101.954C101.257 36.9489 100.909 36.6006 100.909 35.904V16.906H92.8348C91.8215 16.906 90.9825 17.001 90.3175 17.191C89.6526 17.3493 89.1143 17.6343 88.7027 18.0459C88.3227 18.4259 88.0536 18.9641 87.8953 19.6607C87.737 20.3257 87.6578 21.1489 87.6578 22.1305V35.904C87.6578 36.6006 87.3095 36.9489 86.6129 36.9489H81.9584C81.2301 36.9489 80.866 36.6006 80.866 35.904V20.5156C80.866 18.8058 81.056 17.3493 81.436 16.1461C81.8159 14.9112 82.4333 13.9138 83.2883 13.1539C84.1748 12.3623 85.3306 11.7924 86.7554 11.4441C88.2119 11.0641 90.0167 10.8742 92.1698 10.8742H116.44Z" fill="#0E264F"/>
<path d="M157.923 10.8742C160.044 10.8742 161.833 11.0641 163.29 11.4441C164.746 11.7924 165.902 12.3623 166.757 13.1539C167.644 13.9138 168.277 14.9112 168.657 16.1461C169.037 17.3493 169.227 18.8058 169.227 20.5156V27.3549C169.227 29.0648 169.037 30.5371 168.657 31.772C168.277 32.9752 167.644 33.9726 166.757 34.7642C165.902 35.5241 164.746 36.0782 163.29 36.4265C161.833 36.7748 160.044 36.9489 157.923 36.9489H144.482C142.329 36.9489 140.524 36.7748 139.067 36.4265C137.643 36.0782 136.487 35.5241 135.6 34.7642C134.745 33.9726 134.128 32.9752 133.748 31.772C133.368 30.5371 133.178 29.0648 133.178 27.3549V20.5156C133.178 18.8058 133.368 17.3493 133.748 16.1461C134.128 14.9112 134.745 13.9138 135.6 13.1539C136.487 12.3623 137.643 11.7924 139.067 11.4441C140.524 11.0641 142.329 10.8742 144.482 10.8742H157.923ZM139.97 26.1676C139.97 27.1808 140.049 28.0199 140.207 28.6848C140.366 29.3497 140.635 29.888 141.015 30.2996C141.426 30.6796 141.965 30.9646 142.63 31.1545C143.295 31.3129 144.134 31.392 145.147 31.392H157.258C158.303 31.392 159.158 31.3129 159.823 31.1545C160.488 30.9646 161.01 30.6796 161.39 30.2996C161.802 29.888 162.087 29.3497 162.245 28.6848C162.403 28.0199 162.483 27.1808 162.483 26.1676V21.6555C162.483 20.674 162.403 19.8507 162.245 19.1858C162.087 18.5209 161.802 17.9826 161.39 17.571C161.01 17.1593 160.488 16.8744 159.823 16.716C159.158 16.5577 158.303 16.4786 157.258 16.4786H145.147C144.134 16.4786 143.295 16.5577 142.63 16.716C141.965 16.8744 141.426 17.1593 141.015 17.571C140.635 17.9826 140.366 18.5209 140.207 19.1858C140.049 19.8507 139.97 20.674 139.97 21.6555V26.1676Z" fill="#0E264F"/>
<path d="M199.299 10.8742C199.869 10.8742 200.154 11.1591 200.154 11.7291V15.7186C200.154 16.2886 199.869 16.5736 199.299 16.5736H186.665C185.652 16.5736 184.813 16.6685 184.148 16.8585C183.483 17.0168 182.945 17.3018 182.533 17.7134C182.153 18.0934 181.884 18.6317 181.726 19.3283C181.567 19.9932 181.488 20.8164 181.488 21.798V35.904C181.488 36.6006 181.14 36.9489 180.443 36.9489H175.789C175.061 36.9489 174.697 36.6006 174.697 35.904V20.5156C174.697 18.8058 174.887 17.3493 175.266 16.1461C175.646 14.9112 176.264 13.9138 177.119 13.1539C178.005 12.3623 179.161 11.7924 180.586 11.4441C182.042 11.0641 183.847 10.8742 186 10.8742H199.299Z" fill="#0E264F"/>
<path d="M10.444 39.3334H202.888V54H10.444V39.3334Z" fill="#F5F6F9"/>
<path d="M20.6821 48.8412H18.0474L17.5621 50.1845H16.7301L18.9141 44.1785H19.8241L21.9994 50.1845H21.1674L20.6821 48.8412ZM20.4568 48.1998L19.3648 45.1492L18.2728 48.1998H20.4568Z" fill="#0E264F"/>
<path d="M27.2586 50.1845L25.8199 47.7145H24.8666V50.1845H24.0779V44.1439H26.0279C26.4844 44.1439 26.8686 44.2219 27.1806 44.3779C27.4984 44.5339 27.7352 44.7447 27.8912 45.0105C28.0472 45.2763 28.1252 45.5796 28.1252 45.9205C28.1252 46.3365 28.0039 46.7034 27.7612 47.0212C27.5244 47.339 27.1661 47.5499 26.6866 47.6538L28.2032 50.1845H27.2586ZM24.8666 47.0818H26.0279C26.4555 47.0818 26.7761 46.9779 26.9899 46.7699C27.2037 46.5561 27.3106 46.273 27.3106 45.9205C27.3106 45.5623 27.2037 45.285 26.9899 45.0885C26.7819 44.8921 26.4612 44.7939 26.0279 44.7939H24.8666V47.0818Z" fill="#0E264F"/>
<path d="M36.6047 44.1872V50.1845H35.816V45.7125L33.8227 50.1845H33.268L31.266 45.7039V50.1845H30.4774V44.1872H31.3267L33.5454 49.1445L35.764 44.1872H36.6047Z" fill="#0E264F"/>
<path d="M41.8075 50.2452C41.2471 50.2452 40.7357 50.1152 40.2735 49.8552C39.8113 49.5894 39.4444 49.2225 39.1729 48.7545C38.9071 48.2807 38.7742 47.7492 38.7742 47.1599C38.7742 46.5705 38.9071 46.0419 39.1729 45.5739C39.4444 45.1001 39.8113 44.7332 40.2735 44.4732C40.7357 44.2074 41.2471 44.0745 41.8075 44.0745C42.3737 44.0745 42.888 44.2074 43.3502 44.4732C43.8124 44.7332 44.1764 45.0972 44.4422 45.5652C44.708 46.0332 44.8408 46.5647 44.8408 47.1599C44.8408 47.755 44.708 48.2865 44.4422 48.7545C44.1764 49.2225 43.8124 49.5894 43.3502 49.8552C42.888 50.1152 42.3737 50.2452 41.8075 50.2452ZM41.8075 49.5605C42.2293 49.5605 42.6077 49.4623 42.9428 49.2658C43.2837 49.0694 43.5495 48.7892 43.7402 48.4252C43.9366 48.0612 44.0348 47.6394 44.0348 47.1599C44.0348 46.6745 43.9366 46.2527 43.7402 45.8945C43.5495 45.5305 43.2866 45.2503 42.9515 45.0539C42.6164 44.8574 42.2351 44.7592 41.8075 44.7592C41.38 44.7592 40.9986 44.8574 40.6635 45.0539C40.3284 45.2503 40.0626 45.5305 39.8662 45.8945C39.6755 46.2527 39.5802 46.6745 39.5802 47.1599C39.5802 47.6394 39.6755 48.0612 39.8662 48.4252C40.0626 48.7892 40.3284 49.0694 40.6635 49.2658C41.0044 49.4623 41.3857 49.5605 41.8075 49.5605Z" fill="#0E264F"/>
<path d="M50.1893 50.1845L48.7507 47.7145H47.7973V50.1845H47.0087V44.1439H48.9587C49.4151 44.1439 49.7993 44.2219 50.1113 44.3779C50.4291 44.5339 50.666 44.7447 50.822 45.0105C50.978 45.2763 51.056 45.5796 51.056 45.9205C51.056 46.3365 50.9347 46.7034 50.692 47.0212C50.4551 47.339 50.0969 47.5499 49.6173 47.6538L51.134 50.1845H50.1893ZM47.7973 47.0818H48.9587C49.3862 47.0818 49.7069 46.9779 49.9207 46.7699C50.1344 46.5561 50.2413 46.273 50.2413 45.9205C50.2413 45.5623 50.1344 45.285 49.9207 45.0885C49.7127 44.8921 49.392 44.7939 48.9587 44.7939H47.7973V47.0818Z" fill="#0E264F"/>
<path d="M61.4993 44.1439V50.1845H60.7106V47.4458H57.634V50.1845H56.8453V44.1439H57.634V46.7959H60.7106V44.1439H61.4993Z" fill="#0E264F"/>
<path d="M64.7613 44.7852V46.8045H66.9626V47.4545H64.7613V49.5345H67.2226V50.1845H63.9726V44.1352H67.2226V44.7852H64.7613Z" fill="#0E264F"/>
<path d="M73.1133 48.8412H70.4786L69.9933 50.1845H69.1613L71.3453 44.1785H72.2553L74.4306 50.1845H73.5986L73.1133 48.8412ZM72.8879 48.1998L71.796 45.1492L70.704 48.1998H72.8879Z" fill="#0E264F"/>
<path d="M77.2978 49.5432H79.4124V50.1845H76.5091V44.1439H77.2978V49.5432Z" fill="#0E264F"/>
<path d="M85.0947 44.1439V44.7852H83.448V50.1845H82.6593V44.7852H81.004V44.1439H85.0947Z" fill="#0E264F"/>
<path d="M91.8461 44.1439V50.1845H91.0574V47.4458H87.9808V50.1845H87.1921V44.1439H87.9808V46.7959H91.0574V44.1439H91.8461Z" fill="#0E264F"/>
<path d="M102.393 50.1845L101.605 49.3872C101.31 49.6934 100.995 49.9216 100.66 50.0718C100.325 50.2163 99.9464 50.2885 99.5246 50.2885C99.1086 50.2885 98.7389 50.2134 98.4153 50.0632C98.0975 49.913 97.8491 49.6992 97.67 49.4218C97.4966 49.1445 97.41 48.821 97.41 48.4512C97.41 48.0294 97.5284 47.6596 97.7653 47.3419C98.008 47.0183 98.3633 46.7641 98.8313 46.5792C98.6464 46.3596 98.5135 46.1574 98.4326 45.9725C98.3517 45.7876 98.3113 45.5854 98.3113 45.3659C98.3113 45.1116 98.3749 44.8834 98.502 44.6812C98.6348 44.4732 98.8226 44.3114 99.0653 44.1959C99.308 44.0803 99.5882 44.0225 99.906 44.0225C100.218 44.0225 100.49 44.0832 100.721 44.2045C100.952 44.3259 101.125 44.4963 101.241 44.7159C101.356 44.9296 101.408 45.1694 101.397 45.4352H100.608C100.614 45.1983 100.547 45.0134 100.409 44.8805C100.27 44.7419 100.091 44.6725 99.8713 44.6725C99.6402 44.6725 99.4524 44.739 99.308 44.8719C99.1693 44.999 99.1 45.1636 99.1 45.3659C99.1 45.5392 99.1462 45.7067 99.2386 45.8685C99.3369 46.0303 99.4986 46.2296 99.724 46.4665L101.527 48.2778L101.683 48.0352L102.272 47.0472H103.121L102.411 48.2778C102.312 48.4512 102.197 48.6332 102.064 48.8238L103.425 50.1845H102.393ZM99.5246 49.6125C99.8366 49.6125 100.117 49.5518 100.365 49.4305C100.62 49.3092 100.859 49.1214 101.085 48.8672L99.308 47.0818C98.5684 47.365 98.1986 47.8127 98.1986 48.4252C98.1986 48.7661 98.32 49.0492 98.5626 49.2745C98.8111 49.4998 99.1317 49.6125 99.5246 49.6125Z" fill="#0E264F"/>
<path d="M114.855 44.1872V50.1845H114.066V45.7125L112.073 50.1845H111.518L109.516 45.7039V50.1845H108.727V44.1872H109.577L111.795 49.1445L114.014 44.1872H114.855Z" fill="#0E264F"/>
<path d="M118.108 44.7852V46.8045H120.309V47.4545H118.108V49.5345H120.569V50.1845H117.319V44.1352H120.569V44.7852H118.108Z" fill="#0E264F"/>
<path d="M124.77 44.1439C125.428 44.1439 125.997 44.2681 126.477 44.5165C126.962 44.7592 127.332 45.1087 127.586 45.5652C127.846 46.0216 127.976 46.559 127.976 47.1772C127.976 47.7954 127.846 48.3327 127.586 48.7892C127.332 49.2398 126.962 49.5865 126.477 49.8292C125.997 50.0661 125.428 50.1845 124.77 50.1845H122.889V44.1439H124.77ZM124.77 49.5345C125.55 49.5345 126.145 49.3294 126.555 48.9192C126.965 48.5032 127.17 47.9225 127.17 47.1772C127.17 46.4261 126.962 45.8396 126.546 45.4179C126.136 44.9961 125.544 44.7852 124.77 44.7852H123.678V49.5345H124.77Z" fill="#0E264F"/>
<path d="M130.932 44.1439V50.1845H130.143V44.1439H130.932Z" fill="#0E264F"/>
<path d="M133.108 47.1599C133.108 46.5705 133.241 46.0419 133.507 45.5739C133.772 45.1001 134.134 44.7303 134.59 44.4645C135.052 44.1987 135.564 44.0659 136.124 44.0659C136.783 44.0659 137.358 44.2247 137.849 44.5425C138.34 44.8603 138.698 45.311 138.923 45.8945H137.979C137.811 45.5305 137.568 45.2503 137.251 45.0539C136.939 44.8574 136.563 44.7592 136.124 44.7592C135.702 44.7592 135.324 44.8574 134.989 45.0539C134.654 45.2503 134.391 45.5305 134.2 45.8945C134.009 46.2527 133.914 46.6745 133.914 47.1599C133.914 47.6394 134.009 48.0612 134.2 48.4252C134.391 48.7834 134.654 49.0607 134.989 49.2572C135.324 49.4536 135.702 49.5518 136.124 49.5518C136.563 49.5518 136.939 49.4565 137.251 49.2658C137.568 49.0694 137.811 48.7892 137.979 48.4252H138.923C138.698 49.003 138.34 49.4507 137.849 49.7685C137.358 50.0805 136.783 50.2365 136.124 50.2365C135.564 50.2365 135.052 50.1065 134.59 49.8465C134.134 49.5807 133.772 49.2138 133.507 48.7458C133.241 48.2778 133.108 47.7492 133.108 47.1599Z" fill="#0E264F"/>
<path d="M144.795 48.8412H142.16L141.675 50.1845H140.843L143.027 44.1785H143.937L146.112 50.1845H145.28L144.795 48.8412ZM144.569 48.1998L143.477 45.1492L142.385 48.1998H144.569Z" fill="#0E264F"/>
<path d="M148.979 49.5432H151.094V50.1845H148.19V44.1439H148.979V49.5432Z" fill="#0E264F"/>
<path d="M158.411 50.2452C158.012 50.2452 157.654 50.1758 157.336 50.0372C157.024 49.8927 156.778 49.6963 156.599 49.4478C156.42 49.1936 156.328 48.9018 156.322 48.5725H157.163C157.191 48.8556 157.307 49.0954 157.509 49.2918C157.717 49.4825 158.018 49.5778 158.411 49.5778C158.786 49.5778 159.081 49.4854 159.295 49.3005C159.514 49.1098 159.624 48.8672 159.624 48.5725C159.624 48.3414 159.56 48.1536 159.433 48.0092C159.306 47.8647 159.147 47.755 158.957 47.6798C158.766 47.6047 158.509 47.5238 158.185 47.4372C157.787 47.3332 157.466 47.2292 157.223 47.1252C156.986 47.0212 156.781 46.8594 156.608 46.6399C156.44 46.4145 156.357 46.1141 156.357 45.7385C156.357 45.4092 156.44 45.1174 156.608 44.8632C156.775 44.609 157.009 44.4125 157.31 44.2739C157.616 44.1352 157.966 44.0659 158.359 44.0659C158.925 44.0659 159.387 44.2074 159.745 44.4905C160.109 44.7736 160.314 45.1492 160.361 45.6172H159.494C159.465 45.3861 159.344 45.1839 159.13 45.0105C158.916 44.8314 158.633 44.7419 158.281 44.7419C157.951 44.7419 157.683 44.8285 157.475 45.0019C157.267 45.1694 157.163 45.4063 157.163 45.7125C157.163 45.9321 157.223 46.1112 157.345 46.2499C157.472 46.3885 157.625 46.4954 157.804 46.5705C157.989 46.6399 158.246 46.7207 158.575 46.8132C158.974 46.923 159.295 47.0327 159.537 47.1425C159.78 47.2465 159.988 47.4112 160.161 47.6365C160.335 47.8561 160.421 48.1565 160.421 48.5378C160.421 48.8325 160.343 49.1098 160.187 49.3698C160.031 49.6298 159.8 49.8407 159.494 50.0025C159.188 50.1643 158.827 50.2452 158.411 50.2452Z" fill="#0E264F"/>
<path d="M163.497 44.7852V46.8045H165.698V47.4545H163.497V49.5345H165.958V50.1845H162.708V44.1352H165.958V44.7852H163.497Z" fill="#0E264F"/>
<path d="M171.459 50.1845L170.02 47.7145H169.067V50.1845H168.278V44.1439H170.228C170.685 44.1439 171.069 44.2219 171.381 44.3779C171.699 44.5339 171.936 44.7447 172.092 45.0105C172.248 45.2763 172.326 45.5796 172.326 45.9205C172.326 46.3365 172.204 46.7034 171.962 47.0212C171.725 47.339 171.367 47.5499 170.887 47.6538L172.404 50.1845H171.459ZM169.067 47.0818H170.228C170.656 47.0818 170.977 46.9779 171.19 46.7699C171.404 46.5561 171.511 46.273 171.511 45.9205C171.511 45.5623 171.404 45.285 171.19 45.0885C170.982 44.8921 170.662 44.7939 170.228 44.7939H169.067V47.0818Z" fill="#0E264F"/>
<path d="M179.67 44.1439L177.391 50.1845H176.481L174.201 44.1439H175.042L176.94 49.3525L178.838 44.1439H179.67Z" fill="#0E264F"/>
<path d="M182.45 44.1439V50.1845H181.661V44.1439H182.45Z" fill="#0E264F"/>
<path d="M184.626 47.1599C184.626 46.5705 184.759 46.0419 185.025 45.5739C185.291 45.1001 185.652 44.7303 186.108 44.4645C186.57 44.1987 187.082 44.0659 187.642 44.0659C188.301 44.0659 188.876 44.2247 189.367 44.5425C189.858 44.8603 190.216 45.311 190.441 45.8945H189.497C189.329 45.5305 189.087 45.2503 188.769 45.0539C188.457 44.8574 188.081 44.7592 187.642 44.7592C187.22 44.7592 186.842 44.8574 186.507 45.0539C186.172 45.2503 185.909 45.5305 185.718 45.8945C185.527 46.2527 185.432 46.6745 185.432 47.1599C185.432 47.6394 185.527 48.0612 185.718 48.4252C185.909 48.7834 186.172 49.0607 186.507 49.2572C186.842 49.4536 187.22 49.5518 187.642 49.5518C188.081 49.5518 188.457 49.4565 188.769 49.2658C189.087 49.0694 189.329 48.7892 189.497 48.4252H190.441C190.216 49.003 189.858 49.4507 189.367 49.7685C188.876 50.0805 188.301 50.2365 187.642 50.2365C187.082 50.2365 186.57 50.1065 186.108 49.8465C185.652 49.5807 185.291 49.2138 185.025 48.7458C184.759 48.2778 184.626 47.7492 184.626 47.1599Z" fill="#0E264F"/>
<path d="M193.531 44.7852V46.8045H195.732V47.4545H193.531V49.5345H195.992V50.1845H192.742V44.1352H195.992V44.7852H193.531Z" fill="#0E264F"/>
<defs>
<linearGradient id="paint0_linear_1_7250" x1="101.444" y1="54" x2="101.444" y2="0" gradientUnits="userSpaceOnUse">
<stop stop-color="#0C9AEE"/>
<stop offset="1" stop-color="#1C80E0"/>
</linearGradient>
</defs>
</svg>
