<svg width="70" height="70" viewBox="0 0 70 70" fill="none" xmlns="http://www.w3.org/2000/svg">
<path d="M66.7371 5.26578C66.6037 5.02977 66.3536 4.88379 66.0825 4.88379H50.5083C50.2445 4.88379 50.0001 5.02198 49.864 5.248L45.2126 12.9754L40.5613 5.24798C40.4252 5.02195 40.1808 4.88376 39.917 4.88376H24.3428C24.0717 4.88376 23.8215 5.02975 23.6882 5.26575C23.5547 5.50162 23.5587 5.79124 23.6985 6.02345L33.9388 23.0361C32.8831 23.7025 32.1799 24.8788 32.1799 26.2169V32.1938C30.1753 33.8766 28.526 35.9689 27.3619 38.3411H18.5317V39.845L33.1527 39.8727C35.4309 36.1257 39.5527 33.6178 44.2491 33.6178C51.4044 33.6178 57.2257 39.4391 57.2257 46.5944C57.2257 53.7497 51.4044 59.5711 44.2491 59.5711C37.0938 59.5711 31.2725 53.7497 31.2725 46.5944C31.2725 44.7281 31.6716 42.9542 32.3841 41.349H30.7521C30.1175 42.9763 29.7685 44.7453 29.7685 46.5944C29.7685 54.5791 36.2644 61.075 44.2491 61.075C52.2338 61.075 58.7296 54.5791 58.7296 46.5944C58.7296 38.6098 52.2338 32.1139 44.2491 32.1139C39.3295 32.1139 34.9759 34.5804 32.3578 38.3412H29.0538C31.9886 32.9593 37.6994 29.2995 44.2491 29.2995C53.7855 29.2995 61.544 37.058 61.544 46.5944C61.544 56.1309 53.7855 63.8894 44.2491 63.8894C38.3226 63.8894 33.0835 60.8924 29.9657 56.335H28.1758C31.4765 61.7614 37.4467 65.3933 44.2491 65.3933C54.6147 65.3933 63.0479 56.9601 63.0479 46.5944C63.0479 40.8194 60.4295 35.6451 56.3184 32.1939V26.2169C56.3184 25.4944 56.1131 24.8192 55.7584 24.2457L66.7268 6.02347C66.8666 5.79124 66.8706 5.50165 66.7371 5.26578ZM56.1906 6.38769H59.1941L50.2207 21.2956L48.719 18.8006L56.1906 6.38769ZM50.9333 6.38769H54.4353L47.8413 17.3425L46.0903 14.4336L50.9333 6.38769ZM39.492 6.38769L51.1246 25.7136H47.5614H47.4723L35.8396 6.38769H39.492ZM34.0842 6.38769L45.7169 25.7136H42.7135L31.0808 6.38769H34.0842ZM25.6731 6.38769H29.3254L40.9582 25.7136H37.3057L25.6731 6.38769ZM35.1877 26.2169V30.1284C34.6711 30.4138 34.1692 30.7225 33.6838 31.0536V26.2169C33.6838 25.4246 34.0952 24.7277 34.7147 24.3252L35.4917 25.616C35.3081 25.7531 35.1877 25.9701 35.1877 26.2169ZM51.8067 29.3836C49.4927 28.3634 46.9362 27.7956 44.2491 27.7956C41.5621 27.7956 39.0056 28.3634 36.6916 29.3836V27.1931C36.7526 27.209 51.8067 27.2175 51.8067 27.2175V29.3836ZM54.8145 31.0536C54.329 30.7225 53.8271 30.4138 53.3106 30.1284V26.2169C53.3106 25.8668 53.0703 25.5752 52.7463 25.4915L51.8251 23.9611H52.5587C53.8026 23.9611 54.8145 24.973 54.8145 26.2169V31.0536ZM54.6827 23.1167C54.0779 22.7011 53.3463 22.4571 52.5587 22.4571H51.2769L60.9494 6.38769H64.7522L54.6827 23.1167Z" fill="white"/>
<path d="M53.6544 43.6659C53.566 43.3936 53.3307 43.1952 53.0474 43.1541L47.4337 42.3384L44.9232 37.2517C44.7966 36.995 44.5352 36.8325 44.249 36.8325C43.9627 36.8325 43.7013 36.995 43.5747 37.2517L41.0642 42.3384L35.4505 43.1541C35.1672 43.1952 34.9319 43.3936 34.8435 43.6659C34.755 43.9381 34.8288 44.2369 35.0337 44.4366L39.0959 48.3963L38.137 53.9873C38.0157 54.2716 38.4147 55.1645 39.228 54.78L44.249 52.1402L49.2699 54.78C49.9836 55.1455 50.4775 54.3286 50.3609 53.9873L49.402 48.3963L53.4642 44.4366C53.6691 44.2369 53.743 43.9381 53.6544 43.6659ZM48.0692 47.5953C47.892 47.768 47.8112 48.017 47.8531 48.2608L48.6212 52.7399L44.5989 50.6252C44.4894 50.5676 44.3691 50.5388 44.249 50.5388C44.1288 50.5388 44.0086 50.5676 43.899 50.6252L39.8768 52.7399L40.6449 48.2608C40.6867 48.017 40.606 47.768 40.4287 47.5953L37.1746 44.4233L41.6716 43.7699C41.9166 43.7342 42.1282 43.5805 42.2378 43.3585L44.249 39.2836L46.2601 43.3585C46.3697 43.5805 46.5813 43.7342 46.8263 43.7699L51.3233 44.4233L48.0692 47.5953Z" fill="white"/>
<path d="M5.96875 27.7955H8.34246V29.2994H5.96875V27.7955Z" fill="white"/>
<path d="M14.3501 27.7955H29.0228V29.2994H14.3501V27.7955Z" fill="white"/>
<path d="M10.1484 27.7955H12.5224V29.2994H10.1484V27.7955Z" fill="white"/>
<path d="M10.1797 38.3411H12.5452V39.845H10.1797V38.3411Z" fill="white"/>
<path d="M14.3447 38.3411H16.7102V39.845H14.3447V38.3411Z" fill="white"/>
<path d="M3.37207 33.0684H5.74605V34.5723H3.37207V33.0684Z" fill="white"/>
<path d="M11.7539 33.0684H26.4266V34.5723H11.7539V33.0684Z" fill="white"/>
<path d="M7.55225 33.0684H9.92623V34.5723H7.55225V33.0684Z" fill="white"/>
<path d="M7.17188 53.3271H9.54559V54.8311H7.17188V53.3271Z" fill="white"/>
<path d="M15.5532 54.8311H30.2259V53.3272H28.3184C27.4401 51.2568 26.954 48.9813 26.954 46.5944C26.954 44.7664 27.24 43.0042 27.768 41.3489H26.1957C25.711 43.0145 25.4501 44.7745 25.4501 46.5944C25.4501 48.966 25.8927 51.2358 26.6977 53.3272H15.5532V54.8311Z" fill="white"/>
<path d="M11.3516 53.3271H13.7255V54.8311H11.3516V53.3271Z" fill="white"/>
<path d="M3.37207 58.5999H5.74605V60.1038H3.37207V58.5999Z" fill="white"/>
<path d="M11.7539 58.5999H26.4266V60.1038H11.7539V58.5999Z" fill="white"/>
<path d="M7.55225 58.5999H9.92623V60.1038H7.55225V58.5999Z" fill="white"/>
</svg>
