<svg width="70" height="70" viewBox="0 0 70 70" fill="none" xmlns="http://www.w3.org/2000/svg">
<path fill-rule="evenodd" clip-rule="evenodd" d="M38.3342 6.47417C38.3342 5.92636 38.7783 5.48227 39.3261 5.48227H40.613V4.19551C40.613 3.6477 41.0571 3.20362 41.6049 3.20362C42.1527 3.20362 42.5968 3.6477 42.5968 4.19551V5.48227H43.8836C44.4314 5.48227 44.8755 5.92636 44.8755 6.47417C44.8755 7.02197 44.4314 7.46606 43.8836 7.46606H42.5968V8.75282C42.5968 9.30063 42.1527 9.74472 41.6049 9.74472C41.0571 9.74472 40.613 9.30063 40.613 8.75282V7.46606H39.3261C38.7783 7.46606 38.3342 7.02197 38.3342 6.47417ZM64.0441 45.9551V60.3853C64.0441 60.9331 63.6 61.3772 63.0522 61.3772H24.4213L26.8378 65.5627C27.0328 65.9004 27.0118 66.3209 26.7842 66.6375C26.5567 66.9542 26.1644 67.1082 25.7826 67.0308L22.7848 66.4258L21.8099 69.3244C21.6856 69.6939 21.3563 69.9564 20.9684 69.995C20.9353 69.9983 20.9023 70 20.8694 70C20.5177 70 20.189 69.813 20.0108 69.5041L17.2381 64.7016C16.9958 64.7183 16.7521 64.7299 16.5057 64.7299C16.2931 64.7299 16.0827 64.7217 15.8733 64.7091L13.1049 69.5039C12.9267 69.8128 12.5979 69.9999 12.2462 69.9999C12.2135 69.9999 12.1805 69.9982 12.1473 69.9949C11.7593 69.9562 11.43 69.6938 11.3058 69.3242L10.3309 66.4257L7.3331 67.0307C6.95094 67.1078 6.559 66.9542 6.33143 66.6373C6.10387 66.3208 6.08289 65.9002 6.27787 65.5626L8.74201 61.2946C7.03964 59.4269 6 56.945 6 54.2247C6 48.4319 10.7128 43.7191 16.5055 43.7191C17.5571 43.7191 18.5724 43.8763 19.531 44.1651C20.0788 42.8801 21.2014 41.9143 22.6163 41.5856L32.0012 39.405C24.441 38.6724 24.047 25.8851 24.047 23.2612C24.047 17.7123 26.6938 12.4962 31.1585 9.17438L30.4185 5.68334C30.0366 3.88207 31.0642 2.07924 32.8087 1.48977C35.6509 0.529618 38.9552 -0.0279667 41.6419 0.00108159C45.3455 0.0370731 48.4491 0.830586 50.4005 1.48977C52.1449 2.07924 53.1724 3.88207 52.7906 5.68334L52.0507 9.17409C56.5153 12.4957 59.1621 17.712 59.1621 23.2611C59.1621 25.8851 58.7682 38.6724 51.208 39.4048L60.5929 41.5854C62.6288 42.08 64.0441 43.8758 64.0441 45.9551ZM46.688 39.2719V38.084C45.2025 38.981 43.463 39.4981 41.6048 39.4981C39.7466 39.4981 38.0072 38.981 36.5216 38.084V39.2719L41.6048 46.0216L46.688 39.2719ZM49.4855 29.6337V23.4998C44.4906 23.218 41.2823 20.7391 39.5136 18.797C38.6881 20.6166 36.9486 22.8261 33.7241 23.4069V29.6337C33.7241 33.979 37.2593 37.5143 41.6048 37.5143C45.9503 37.5143 49.4855 33.979 49.4855 29.6337ZM33.666 41.055L38.7595 48.5988C38.8349 48.7103 38.939 48.7357 38.9944 48.7408C39.0497 48.7455 39.1568 48.7401 39.2513 48.6443L40.2975 47.5834L35.1256 40.716L33.666 41.055ZM42.912 47.5834L43.9581 48.6443C44.0526 48.7401 44.1599 48.7456 44.2149 48.7408C44.2703 48.7357 44.3744 48.7103 44.4498 48.5988L49.5435 41.055L48.0838 40.7158L42.912 47.5834ZM32.3594 5.27242L33.2888 9.65743C33.4517 10.4264 34.1147 10.9635 34.9007 10.9635H48.3087C49.0948 10.9635 49.7577 10.4264 49.9207 9.65743L50.8501 5.27242C51.0262 4.44164 50.5701 3.64132 49.7655 3.36955C47.9508 2.75641 45.0649 2.01859 41.6219 1.98501C39.1816 1.95525 36.0468 2.49002 33.4437 3.36955C32.6394 3.64132 32.1834 4.4415 32.3594 5.27242ZM32.6905 37.4556H34.5379V36.5062C32.9143 34.8372 31.8736 32.5985 31.7526 30.121H31.2176C28.8525 30.121 26.9283 28.1969 26.9283 25.8318C26.9283 23.4667 28.8525 21.5424 31.2176 21.5424H32.6847C36.6429 21.2229 37.9704 17.8585 38.1476 16.5858C38.2042 16.18 38.5044 15.8507 38.9033 15.757C39.3022 15.6629 39.7177 15.8247 39.9489 16.1628C41.0559 17.7823 44.2911 21.5424 50.4326 21.5424C50.4478 21.5424 50.4624 21.5428 50.4775 21.5424H51.9922C54.3573 21.5424 56.2814 23.4665 56.2814 25.8318C56.2814 28.1967 54.3573 30.121 51.9922 30.121H51.4571C51.336 32.5983 50.2955 34.837 48.6719 36.5061V37.4556H50.5195C56.9919 37.4556 57.1788 24.7143 57.1788 23.2615C57.1788 18.5741 55.0468 14.1535 51.4193 11.1963C50.7799 12.2651 49.6232 12.9472 48.309 12.9472H34.901C33.5868 12.9472 32.4302 12.2653 31.7909 11.1966C28.1634 14.154 26.0312 18.5745 26.0312 23.2615C26.0311 24.7143 26.218 37.4556 32.6905 37.4556ZM51.4693 28.1372H51.992C53.2632 28.1372 54.2975 27.103 54.2975 25.8318C54.2975 24.5605 53.2632 23.5262 51.992 23.5262H51.4693V28.1372ZM31.7403 23.5263H31.2176C29.9464 23.5263 28.9121 24.5606 28.9121 25.8319C28.9121 27.1031 29.9464 28.1374 31.2176 28.1374H31.7403V23.5263ZM21.3677 44.9165C24.7187 46.674 27.0112 50.1857 27.0112 54.2248C27.0112 56.103 26.5135 57.8661 25.6463 59.3934H40.6128V50.0835C40.1287 50.5462 39.4772 50.7763 38.8115 50.7161C38.1227 50.6523 37.5045 50.2852 37.1154 49.7089L31.5969 41.5358L23.0655 43.5182C22.2928 43.6977 21.6768 44.2199 21.3677 44.9165ZM13.7793 64.3692C12.4871 64.0214 11.2922 63.4345 10.2467 62.6565L9.09484 64.6516L10.7962 64.3082C11.2855 64.2093 11.7734 64.4905 11.9326 64.9643L12.4858 66.6093L13.7793 64.3692ZM16.5058 62.7464C21.2047 62.7464 25.0275 58.9235 25.0275 54.2248C25.0275 49.5259 21.2046 45.7031 16.5058 45.7031C11.807 45.7031 7.98407 49.5259 7.98407 54.2248C7.98407 58.9237 11.807 62.7464 16.5058 62.7464ZM24.0211 64.6516L22.8374 62.6012C21.7988 63.3881 20.6099 63.9849 19.3222 64.3437L20.6303 66.6094L21.1836 64.9645C21.3429 64.4906 21.83 64.2089 22.32 64.3084L24.0211 64.6516ZM62.0603 45.9551C62.0603 44.7758 61.2863 43.7956 60.1345 43.5159L51.6126 41.5358L46.0941 49.7089C45.7048 50.2852 45.0866 50.6523 44.3978 50.7161C44.3265 50.7226 44.2554 50.7258 44.1847 50.7258C43.5942 50.7258 43.0287 50.497 42.5967 50.084V59.3933H62.0603V45.9551ZM43.4076 32.9846C42.6899 33.5195 40.4679 33.5196 39.75 32.9845C39.3108 32.6573 38.6893 32.748 38.362 33.1872C38.0347 33.6265 38.1254 34.2478 38.5646 34.5752C39.2689 35.1 40.4239 35.3624 41.5789 35.3624C42.7339 35.3624 43.889 35.0999 44.5931 34.575C45.0323 34.2477 45.123 33.6263 44.7957 33.1869C44.4684 32.748 43.8469 32.6571 43.4076 32.9846ZM56.3385 54.1473H48.3183C47.7705 54.1473 47.3265 54.5914 47.3265 55.1392C47.3265 55.687 47.7705 56.1311 48.3183 56.1311H56.3385C56.8863 56.1311 57.3304 55.687 57.3304 55.1392C57.3304 54.5914 56.8864 54.1473 56.3385 54.1473ZM23.2335 54.2248C23.2335 57.9345 20.2155 60.9525 16.5058 60.9525C12.7962 60.9525 9.77812 57.9345 9.77812 54.2248C9.77812 50.515 12.7962 47.4971 16.5058 47.4971C20.2155 47.4971 23.2335 50.5151 23.2335 54.2248ZM21.2498 54.2248C21.2498 51.6089 19.1216 49.4809 16.5058 49.4809C13.8901 49.4809 11.7619 51.6091 11.7619 54.2248C11.7619 56.8406 13.8901 58.9688 16.5058 58.9688C19.1216 58.9688 21.2498 56.8406 21.2498 54.2248ZM39.1157 25.8318C39.1157 25.0512 38.4829 24.4183 37.7023 24.4183C36.9217 24.4183 36.2888 25.0512 36.2888 25.8318C36.2888 26.6124 36.9217 27.2452 37.7023 27.2452C38.4829 27.2452 39.1157 26.6124 39.1157 25.8318ZM45.5073 24.4182C44.7267 24.4182 44.0939 25.051 44.0939 25.8316C44.0939 26.6123 44.7267 27.2451 45.5073 27.2451C46.2879 27.2451 46.9209 26.6123 46.9209 25.8316C46.9209 25.051 46.2879 24.4182 45.5073 24.4182Z" fill="white"/>
</svg>
