<svg width="54" height="57" viewBox="0 0 54 57" fill="none" xmlns="http://www.w3.org/2000/svg">
<path d="M37.4062 56.2162C37.3925 56.2162 37.3787 56.2158 37.3649 56.2151C37.1573 56.2043 36.9626 56.1115 36.8234 55.9571C36.6842 55.8028 36.6121 55.5994 36.6228 55.3919L37.9152 30.5512C37.9176 30.5024 37.9247 30.454 37.9363 30.4065C39.4935 24.01 38.6313 18.5197 35.3737 14.0882C27.5807 3.48685 8.54654 2.14584 8.35534 2.13361C8.14787 2.12036 7.95416 2.02524 7.81683 1.86918C7.6795 1.71311 7.60978 1.50888 7.62303 1.30141C7.63628 1.09394 7.7314 0.900233 7.88747 0.762899C8.04353 0.625564 8.24777 0.555853 8.45523 0.569099C9.26618 0.620751 28.4034 1.96521 36.6339 13.156C40.1688 17.962 41.125 23.866 39.4767 30.7053L38.1881 55.4729C38.1777 55.6734 38.0909 55.8622 37.9454 56.0005C37.7999 56.1388 37.607 56.216 37.4062 56.2162Z" fill="#0E264F"/>
<path d="M21.7298 56.2166C21.5715 56.2166 21.417 56.1686 21.2866 56.0791C21.1561 55.9895 21.0558 55.8626 20.9988 55.715C16.6199 44.3854 19.5527 33.7136 20.6567 29.6963C20.7562 29.3346 20.8576 28.9657 20.9288 28.6802C7.17275 25.3968 1.02456 18.6225 0.765479 18.3317C0.627338 18.1763 0.556564 17.9725 0.568727 17.765C0.58089 17.5574 0.674994 17.3632 0.830337 17.2251C0.98568 17.087 1.18954 17.0162 1.39706 17.0283C1.60459 17.0405 1.79878 17.1346 1.93692 17.29C2.02533 17.3879 8.2719 24.2085 21.9276 27.3031C22.0385 27.328 22.143 27.3753 22.2349 27.4421C22.3268 27.5089 22.404 27.5938 22.4619 27.6915C22.7164 28.1167 22.6004 28.5392 22.1683 30.1114C21.1018 33.9924 18.2686 44.3022 22.4607 55.15C22.5064 55.2688 22.5225 55.3968 22.5077 55.5232C22.4928 55.6496 22.4475 55.7705 22.3756 55.8754C22.3036 55.9804 22.2073 56.0663 22.0948 56.1257C21.9823 56.1851 21.857 56.2163 21.7298 56.2166Z" fill="#0E264F"/>
<path d="M20.9112 21.1805C19.3134 21.1805 17.5605 20.2364 15.6891 18.365C9.91656 12.5924 5.90484 11.5275 5.86507 11.5176C5.73973 11.486 5.62411 11.424 5.52848 11.3371C5.43284 11.2502 5.36013 11.141 5.31681 11.0192C5.27349 10.8974 5.26089 10.7668 5.28012 10.639C5.29936 10.5112 5.34984 10.3901 5.42709 10.2865L7.77844 7.15136C7.90316 6.9852 8.08874 6.87535 8.29441 6.84595C8.50008 6.81656 8.709 6.87003 8.87527 6.9946C8.93652 7.04014 15.0748 11.5768 22.5915 12.3282C25.3562 12.6049 26.8594 13.3635 27.187 14.6478C27.6528 16.4745 25.3581 18.3077 24.5653 18.8775C24.2651 19.4411 23.8465 19.9331 23.3383 20.3196C22.83 20.7061 22.2441 20.9781 21.6207 21.1167C21.3866 21.1593 21.1491 21.1807 20.9112 21.1805ZM7.32036 10.3744C8.97559 11.0599 12.405 12.8643 16.7974 17.2566C18.5325 18.9919 20.099 19.7948 21.3252 19.577C22.6149 19.3485 23.2391 18.0336 23.2452 18.0202C23.3052 17.891 23.3985 17.7802 23.5156 17.6991C24.5263 17.006 25.8367 15.6948 25.668 15.035C25.6316 14.894 25.3059 14.1751 22.4352 13.8881C15.835 13.2279 10.3951 9.9236 8.57692 8.69933L7.32036 10.3744Z" fill="#0E264F"/>
<path d="M31.919 55.4324H27.2163C27.1024 55.4325 26.9899 55.4077 26.8866 55.3599C26.7833 55.312 26.6917 55.2422 26.6181 55.1553C26.5445 55.0685 26.4907 54.9666 26.4605 54.8568C26.4303 54.747 26.4244 54.632 26.4432 54.5197L27.227 49.817C27.9905 43.704 27.9962 39.0541 27.2396 36.0281C27.1638 35.7242 27.0927 35.4494 27.028 35.1999C26.6094 33.5806 26.3786 32.6882 27.0985 31.868C28.1721 30.6445 31.8875 30.4604 33.5097 31.5519C34.5464 32.2488 34.8002 33.3962 34.1878 34.6208C32.9699 37.0564 32.7028 49.9039 32.7028 54.6487C32.7028 54.8565 32.6202 55.0559 32.4732 55.2029C32.3262 55.3499 32.1268 55.4324 31.919 55.4324ZM28.1411 53.8649H31.1373C31.1553 50.1756 31.3233 36.8436 32.7853 33.9197C33.119 33.2526 32.894 33.0268 32.6348 32.8527C31.4596 32.0617 28.7159 32.4004 28.2766 32.9021C28.117 33.0835 28.2115 33.5164 28.5456 34.8076C28.6111 35.0606 28.6834 35.3396 28.7603 35.6476C29.564 38.8624 29.5698 43.7059 28.7776 50.0431L28.1411 53.8649Z" fill="#0E264F"/>
<path d="M32.7923 29.2006C31.281 29.2006 29.4727 27.5687 28.2886 25.003C26.8845 21.9601 27.0494 19.1009 28.6717 18.352C30.2955 17.603 32.5776 19.3328 33.9819 22.3754C35.3857 25.4183 35.2211 28.2773 33.5987 29.0264C33.3459 29.1426 33.0706 29.2021 32.7923 29.2006ZM29.5102 19.7389C29.4477 19.7376 29.3856 19.75 29.3284 19.7753C28.762 20.0367 28.6262 21.9931 29.7119 24.3464C30.7977 26.6996 32.3748 27.8668 32.9418 27.6031C33.5078 27.3417 33.644 25.3853 32.5587 23.0321C31.573 20.8966 30.1823 19.7389 29.5102 19.7389Z" fill="#0E264F"/>
<path d="M42.1082 17.8112C41.9251 17.8112 41.7478 17.747 41.607 17.6299C41.4662 17.5129 41.3708 17.3502 41.3374 17.1702C41.304 16.9901 41.3347 16.8041 41.4241 16.6443C41.5135 16.4845 41.656 16.361 41.8269 16.2953L49.9808 13.1602C50.1749 13.0856 50.3907 13.0911 50.5807 13.1756C50.7706 13.2601 50.9193 13.4165 50.9939 13.6106C51.0685 13.8047 51.0629 14.0204 50.9784 14.2104C50.894 14.4004 50.7375 14.549 50.5434 14.6236L42.3895 17.7588C42.2997 17.7934 42.2044 17.8112 42.1082 17.8112Z" fill="#0E264F"/>
<path d="M36.8115 10.7568C36.663 10.7567 36.5176 10.7144 36.3922 10.6349C36.2668 10.5554 36.1666 10.4419 36.1032 10.3076C36.0398 10.1734 36.0158 10.0238 36.0341 9.87648C36.0524 9.72912 36.1121 9.58998 36.2064 9.47528L40.7189 3.98879C40.7843 3.90928 40.8647 3.84342 40.9556 3.79499C41.0464 3.74655 41.1459 3.71648 41.2483 3.70649C41.3508 3.6965 41.4542 3.70679 41.5527 3.73677C41.6512 3.76675 41.7428 3.81583 41.8223 3.88122C41.9018 3.9466 41.9677 4.02701 42.0161 4.11784C42.0646 4.20868 42.0946 4.30816 42.1046 4.41062C42.1146 4.51308 42.1043 4.6165 42.0743 4.71498C42.0444 4.81346 41.9953 4.90508 41.9299 4.98459L37.4174 10.4711C37.3438 10.5606 37.2513 10.6326 37.1466 10.682C37.0418 10.7314 36.9273 10.7569 36.8115 10.7568Z" fill="#0E264F"/>
<path d="M52.248 31.1351C52.1833 31.1352 52.1189 31.1272 52.0563 31.1114L42.701 28.7601C42.5021 28.707 42.3321 28.5777 42.2277 28.4003C42.1233 28.2229 42.0929 28.0115 42.143 27.8118C42.1932 27.6122 42.3199 27.4403 42.4958 27.3333C42.6716 27.2263 42.8825 27.1927 43.0829 27.2399L52.4382 29.5913C52.6235 29.6379 52.7854 29.7507 52.8934 29.9083C53.0014 30.0659 53.0481 30.2576 53.0248 30.4472C53.0014 30.6369 52.9096 30.8114 52.7665 30.9381C52.6235 31.0648 52.439 31.1349 52.248 31.1351Z" fill="#0E264F"/>
<path d="M40.5406 13.1081C40.3856 13.1081 40.2341 13.0621 40.1052 12.976C39.9763 12.8899 39.8759 12.7675 39.8166 12.6243C39.7572 12.4811 39.7417 12.3235 39.772 12.1714C39.8022 12.0194 39.8768 11.8798 39.9864 11.7702L42.3378 9.4188C42.4854 9.27489 42.6837 9.19493 42.8899 9.19623C43.096 9.19754 43.2934 9.28001 43.4391 9.42578C43.5849 9.57155 43.6674 9.76889 43.6687 9.97503C43.67 10.1812 43.59 10.3795 43.4461 10.5272L41.0948 12.8785C41.0221 12.9514 40.9357 13.0092 40.8406 13.0486C40.7455 13.088 40.6435 13.1082 40.5406 13.1081Z" fill="#0E264F"/>
<path d="M46.8109 23.2973H43.5793C43.3714 23.2973 43.1721 23.2147 43.0251 23.0677C42.8781 22.9207 42.7955 22.7214 42.7955 22.5135C42.7955 22.3056 42.8781 22.1063 43.0251 21.9593C43.1721 21.8123 43.3714 21.7297 43.5793 21.7297H46.8109C47.0188 21.7297 47.2181 21.8123 47.3651 21.9593C47.5121 22.1063 47.5947 22.3056 47.5947 22.5135C47.5947 22.7214 47.5121 22.9207 47.3651 23.0677C47.2181 23.2147 47.0188 23.2973 46.8109 23.2973Z" fill="#0E264F"/>
</svg>
