<svg width="50" height="51" viewBox="0 0 50 51" fill="none" xmlns="http://www.w3.org/2000/svg">
<g opacity="0.9">
<mask id="mask0_1_6994" style="mask-type:luminance" maskUnits="userSpaceOnUse" x="0" y="0" width="50" height="51">
<path d="M49.9512 50.6179V0.715576H0.0488281V50.6179H49.9512Z" fill="white" stroke="white" stroke-width="0.0976562"/>
</mask>
<g mask="url(#mask0_1_6994)">
<path d="M35.96 19.4041V17.0556C35.96 11.0028 31.0532 6.0961 25.0004 6.0961C19.2108 6.0961 14.4697 10.5853 14.0684 16.2728" stroke="#0E264F" stroke-width="1.46484" stroke-miterlimit="10" stroke-linecap="round" stroke-linejoin="round"/>
<path d="M31.2628 12.3587C31.2628 12.3587 26.1428 16.0157 18.7311 16.967C18.2901 17.0236 17.9548 17.3907 17.9548 17.8353V17.8385C17.9548 18.7032 17.2538 19.4042 16.389 19.4042H15.2149C14.0675 19.4042 13.1507 20.3916 13.2679 21.563C13.3699 22.5817 14.3028 23.3183 15.3265 23.3183L16.3892 23.3182C16.3891 28.074 20.2445 31.9293 25.0003 31.9293C29.7559 31.9293 33.6113 28.0741 33.6113 23.3183L34.7855 23.3182C35.933 23.3182 36.8498 22.3307 36.7324 21.1593C36.6303 20.1407 35.6974 19.4042 34.6737 19.4042H33.6113C32.7466 19.4042 32.0457 18.7032 32.0457 17.8385V17.3218C32.0457 15.4454 30.5245 13.9243 28.6482 13.9243H28.6452" stroke="#0E264F" stroke-width="1.46484" stroke-miterlimit="10" stroke-linecap="round" stroke-linejoin="round"/>
<path d="M31.2625 7.66181C31.2625 4.20312 28.4587 1.39921 24.9999 1.39921C21.5411 1.39921 18.7373 4.20312 18.7373 7.66181" stroke="#0E264F" stroke-width="1.46484" stroke-miterlimit="10" stroke-linecap="round" stroke-linejoin="round"/>
<path d="M21.0855 31.1465V34.2977C21.0855 35.2374 20.5255 36.0866 19.6617 36.4565L12.4992 39.524C11.0596 40.1406 10.126 41.556 10.126 43.122V49.9343" stroke="#0E264F" stroke-width="1.46484" stroke-miterlimit="10" stroke-linecap="round" stroke-linejoin="round"/>
<path d="M28.9141 31.1465V34.2977C28.9141 35.2374 29.4741 36.0866 30.3379 36.4565L37.5004 39.524C38.94 40.1406 39.8736 41.556 39.8736 43.122V49.9343" stroke="#0E264F" stroke-width="1.46484" stroke-miterlimit="10" stroke-linecap="round" stroke-linejoin="round"/>
<path d="M21.0859 20.9698V21.7527" stroke="#0E264F" stroke-width="1.46484" stroke-miterlimit="10" stroke-linecap="round" stroke-linejoin="round"/>
<path d="M28.9141 20.9698V21.7527" stroke="#0E264F" stroke-width="1.46484" stroke-miterlimit="10" stroke-linecap="round" stroke-linejoin="round"/>
<path d="M22.6514 25.6667C23.2306 26.1442 24.0618 26.4496 24.9999 26.4496C25.9379 26.4496 26.7692 26.1442 27.3484 25.6667" stroke="#0E264F" stroke-width="1.46484" stroke-miterlimit="10" stroke-linecap="round" stroke-linejoin="round"/>
<path d="M17.9546 37.4091L24.1315 41.5271C24.6575 41.8777 25.3426 41.8777 25.8686 41.5271L32.0455 37.4091" stroke="#0E264F" stroke-width="1.46484" stroke-miterlimit="10" stroke-linecap="round" stroke-linejoin="round"/>
<path d="M14.8234 49.9343C13.9588 49.9343 13.2578 49.2333 13.2578 48.3687V45.2374C13.2578 44.3727 13.9588 43.6717 14.8234 43.6717H21.086C21.9507 43.6717 22.6517 44.3727 22.6517 45.2374V48.3687C22.6517 49.2333 21.9507 49.9343 21.086 49.9343" stroke="#0E264F" stroke-width="1.46484" stroke-miterlimit="10" stroke-linecap="round" stroke-linejoin="round"/>
<path d="M17.9546 43.6717V38.1919" stroke="#0E264F" stroke-width="1.46484" stroke-miterlimit="10" stroke-linecap="round" stroke-linejoin="round"/>
<path d="M32.0454 37.4091V45.2373" stroke="#0E264F" stroke-width="1.46484" stroke-miterlimit="10" stroke-linecap="round" stroke-linejoin="round"/>
<path d="M34.3938 47.5858C34.3938 48.8829 33.3423 49.9343 32.0453 49.9343C30.7482 49.9343 29.6968 48.8829 29.6968 47.5858C29.6968 46.2888 30.7482 45.2374 32.0453 45.2374C33.3423 45.2374 34.3938 46.2888 34.3938 47.5858Z" stroke="#0E264F" stroke-width="1.46484" stroke-miterlimit="10" stroke-linecap="round" stroke-linejoin="round"/>
<path d="M42.2224 33.4949C39.6284 33.4949 37.5254 31.3921 37.5254 28.798V26.4495C37.5254 24.7201 38.9274 23.3182 40.6567 23.3182H43.788C45.5174 23.3182 46.9193 24.7201 46.9193 26.4495V28.798C46.9193 31.3921 44.8164 33.4949 42.2224 33.4949Z" stroke="#0E264F" stroke-width="1.46484" stroke-miterlimit="10" stroke-linecap="round" stroke-linejoin="round"/>
<path d="M49.2673 44.4545V38.5375C49.2673 37.8636 48.836 37.2653 48.1967 37.0522L45.1057 36.0218C44.7859 35.9153 44.5703 35.6162 44.5703 35.2792V32.9509" stroke="#0E264F" stroke-width="1.46484" stroke-miterlimit="10" stroke-linecap="round" stroke-linejoin="round"/>
<path d="M39.8737 32.951V35.2792C39.8737 35.6162 39.6581 35.9152 39.3385 36.0219L38.3081 36.3653" stroke="#0E264F" stroke-width="1.46484" stroke-miterlimit="10" stroke-linecap="round" stroke-linejoin="round"/>
<path d="M39.395 36.0717L41.7523 37.8397C42.0307 38.0484 42.4134 38.0484 42.6917 37.8397L45.049 36.0717" stroke="#0E264F" stroke-width="1.46484" stroke-miterlimit="10" stroke-linecap="round" stroke-linejoin="round"/>
<path d="M7.77803 33.4949C10.372 33.4949 12.475 31.3921 12.475 28.798V25.6667C12.475 24.3697 11.4235 23.3182 10.1265 23.3182H5.42949C4.13252 23.3182 3.08105 24.3697 3.08105 25.6667V28.798C3.08105 31.3921 5.18398 33.4949 7.77803 33.4949Z" stroke="#0E264F" stroke-width="1.46484" stroke-miterlimit="10" stroke-linecap="round" stroke-linejoin="round"/>
<path d="M0.732422 44.4545V38.5375C0.732422 37.8636 1.16367 37.2653 1.80303 37.0522L4.89404 36.0218C5.21377 35.9153 5.42939 35.6162 5.42939 35.2792V32.9509" stroke="#0E264F" stroke-width="1.46484" stroke-miterlimit="10" stroke-linecap="round" stroke-linejoin="round"/>
<path d="M10.126 32.951V35.2792C10.126 35.6162 10.3416 35.9152 10.6612 36.0219L11.6916 36.3653" stroke="#0E264F" stroke-width="1.46484" stroke-miterlimit="10" stroke-linecap="round" stroke-linejoin="round"/>
<path d="M10.6047 36.0717L8.24736 37.8397C7.96904 38.0484 7.58633 38.0484 7.30801 37.8397L4.95068 36.0717" stroke="#0E264F" stroke-width="1.46484" stroke-miterlimit="10" stroke-linecap="round" stroke-linejoin="round"/>
<path d="M3.86387 44.4545C3.43154 44.4545 3.08105 44.104 3.08105 43.6716V42.106C3.08105 41.6736 3.43154 41.3232 3.86387 41.3232H6.99512C7.42754 41.3232 7.77803 41.6736 7.77803 42.106V43.6716C7.77803 44.104 7.42754 44.4545 6.99512 44.4545" stroke="#0E264F" stroke-width="1.46484" stroke-miterlimit="10" stroke-linecap="round" stroke-linejoin="round"/>
<path d="M5.4292 41.3232V36.6263" stroke="#0E264F" stroke-width="1.46484" stroke-miterlimit="10" stroke-linecap="round" stroke-linejoin="round"/>
<path d="M45.3535 41.3232V36.6263" stroke="#0E264F" stroke-width="1.46484" stroke-miterlimit="10" stroke-linecap="round" stroke-linejoin="round"/>
<path d="M46.9193 42.8888C46.9193 42.0242 46.2184 41.3232 45.3537 41.3232C44.4891 41.3232 43.7881 42.0242 43.7881 42.8888C43.7881 43.7535 44.4891 44.4545 45.3537 44.4545C46.2184 44.4545 46.9193 43.7535 46.9193 42.8888Z" stroke="#0E264F" stroke-width="1.46484" stroke-miterlimit="10" stroke-linecap="round" stroke-linejoin="round"/>
<path d="M12.4749 28.0152C9.56113 28.0152 7.51504 26.7137 6.65938 26.0485C6.38018 25.8314 5.99531 25.8293 5.7124 26.0415L3.08105 28.0152" stroke="#0E264F" stroke-width="1.46484" stroke-miterlimit="10" stroke-linecap="round" stroke-linejoin="round"/>
</g>
</g>
</svg>
