<svg width="24" height="25" viewBox="0 0 24 25" fill="none" xmlns="http://www.w3.org/2000/svg">
<path d="M18.031 16.7372L22.3137 21.0199L20.8995 22.4341L16.6168 18.1514C15.0769 19.3834 13.124 20.1204 11 20.1204C6.032 20.1204 2 16.0884 2 11.1204C2 6.15236 6.032 2.12036 11 2.12036C15.968 2.12036 20 6.15236 20 11.1204C20 13.2444 19.263 15.1973 18.031 16.7372ZM16.0247 15.9952C17.2475 14.735 18 13.016 18 11.1204C18 7.25286 14.8675 4.12036 11 4.12036C7.1325 4.12036 4 7.25286 4 11.1204C4 14.9879 7.1325 18.1204 11 18.1204C12.8956 18.1204 14.6146 17.3679 15.8748 16.1451L16.0247 15.9952Z" fill="#0E264F"/>
</svg>
