<svg width="52" height="52" viewBox="0 0 52 52" fill="none" xmlns="http://www.w3.org/2000/svg">
<g opacity="0.9">
<path d="M38.0332 18.908H42.7413L38.9792 27.4661" stroke="#0E264F" stroke-width="1.509" stroke-miterlimit="10" stroke-linecap="round" stroke-linejoin="round"/>
<path d="M29.212 24.9403H23.8379C23.8379 24.9403 26.6833 19.7827 27.1529 19.2066C27.6277 18.624 28.0773 18.9874 28.1201 19.5013C28.163 20.0151 28.0987 27.4662 28.0987 27.4662" stroke="#0E264F" stroke-width="1.509" stroke-miterlimit="10" stroke-linecap="round" stroke-linejoin="round"/>
<path d="M22.4464 27.5301C22.4464 27.5301 18.2826 27.5825 18.0853 27.5168C17.8882 27.451 18.4015 27.1037 21.1315 23.2031C21.6413 22.4747 21.922 21.8601 22.0413 21.3453L22.0837 21.0142C22.0837 19.8048 21.1032 18.8243 19.8938 18.8243C18.8296 18.8243 17.9427 19.5835 17.7451 20.5898" stroke="#0E264F" stroke-width="1.509" stroke-miterlimit="10" stroke-linecap="round" stroke-linejoin="round"/>
<path d="M35.1041 18.908L31.667 27.5498" stroke="#0E264F" stroke-width="1.509" stroke-miterlimit="10" stroke-linecap="round" stroke-linejoin="round"/>
<path d="M2.69583 28.3063C1.52887 25.6811 0.801733 22.9165 1.0478 20.3159C1.10907 19.669 1.40855 19.0678 1.86799 18.6085L5.65869 14.8178C6.74336 13.7331 8.53806 13.8637 9.45422 15.094L13.7359 20.7859C14.1935 21.3942 14.1265 22.248 13.5794 22.7773L10.8059 25.4614C10.4653 25.7909 10.401 26.3133 10.6513 26.7157V26.7158C14.3427 32.6506 19.3493 37.6572 25.2841 41.3487C25.6864 41.5988 26.2088 41.5345 26.5384 41.194L29.2224 38.4205C29.7517 37.8735 30.6056 37.8064 31.2139 38.264L36.9058 42.5457C38.1361 43.4618 38.2667 45.2565 37.182 46.3412L33.3913 50.1319C32.9154 50.6078 32.2866 50.8993 31.6162 50.9583C22.4809 51.7628 11.359 40.641 11.359 40.641C11.359 40.641 7.31356 36.5956 4.27876 31.3803" stroke="#0E264F" stroke-width="1.509" stroke-miterlimit="10" stroke-linecap="round" stroke-linejoin="round"/>
<path d="M16.2695 9.17026C23.6546 2.55019 35.0143 2.78912 42.1123 9.88714C49.4577 17.2325 49.4577 29.1416 42.1123 36.487C40.0648 38.5345 37.6628 40.0112 35.1037 40.9172" stroke="#0E264F" stroke-width="1.509" stroke-miterlimit="10" stroke-linecap="round" stroke-linejoin="round"/>
<path d="M11.0601 16.9595C11.7286 15.0492 12.7146 13.2252 14.0181 11.5696" stroke="#0E264F" stroke-width="1.509" stroke-miterlimit="10" stroke-linecap="round" stroke-linejoin="round"/>
<path d="M45.5086 8.57635C53.1498 17.2909 52.8136 30.561 44.5 38.8746C42.5311 40.8434 40.2842 42.3649 37.8857 43.4389" stroke="#0E264F" stroke-width="1.509" stroke-miterlimit="10" stroke-linecap="round" stroke-linejoin="round"/>
<path d="M8.5752 14.081C9.64839 11.6948 11.1649 9.4594 13.1248 7.49952C21.3433 -0.71898 34.4057 -1.1416 43.1224 6.23186" stroke="#0E264F" stroke-width="1.509" stroke-miterlimit="10" stroke-linecap="round" stroke-linejoin="round"/>
</g>
</svg>
