<svg width="21" height="20" viewBox="0 0 21 20" fill="none" xmlns="http://www.w3.org/2000/svg">
<path d="M10.2689 0C15.7891 0 20.2643 4.47715 20.2643 10C20.2643 15.5228 15.7891 20 10.2689 20C4.74854 20 0.273438 15.5228 0.273438 10H2.27252C2.27252 14.4183 5.85261 18 10.2689 18C14.6852 18 18.2652 14.4183 18.2652 10C18.2652 5.58172 14.6852 2 10.2689 2C7.52035 2 5.0957 3.38734 3.6564 5.50024L6.2707 5.5V7.5H0.273438V1.5H2.27252L2.27241 3.99918C4.09603 1.57075 6.99909 0 10.2689 0ZM11.2684 5L11.2682 9.585L14.5095 12.8284L13.096 14.2426L9.26913 10.413L9.26933 5H11.2684Z" fill="white"/>
</svg>
