<svg width="58" height="56" viewBox="0 0 58 56" fill="none" xmlns="http://www.w3.org/2000/svg">
<path d="M26.8961 0.645874C26.4097 0.645874 26.0154 1.04021 26.0154 1.52664V26.9617C26.0154 27.4481 26.4097 27.8424 26.8961 27.8424C27.3826 27.8424 27.7769 27.4481 27.7769 26.9617V1.52664C27.777 1.04021 27.3827 0.645874 26.8961 0.645874Z" fill="#0E264F"/>
<path d="M19.5639 26.3305C21.4503 22.3893 26.3424 10.5029 19.0793 6.14987C16.1787 4.41055 12.5487 4.44091 9.67774 6.2286C-4.44628 14.7264 -2.35522 42.8874 11.0529 49.2286C13.7388 50.592 16.9883 50.1501 19.2126 48.1188C24.507 43.4059 20.9658 32.1531 19.5009 28.2107C23.4565 29.9865 26.0039 33.916 26.0105 38.252V51.0033C26.0105 51.4898 26.4048 51.8841 26.8913 51.8841C27.3777 51.8841 27.772 51.4898 27.772 51.0033V38.2521C27.7647 32.9632 24.5021 28.2246 19.5639 26.3305ZM17.3384 27.5275C17.4001 27.6717 23.4385 41.9933 18.0398 46.7995C16.3296 48.3599 13.8268 48.6861 11.7738 47.616C6.81501 45.3916 1.68529 37.1399 1.68529 27.181C1.68529 17.2221 6.13645 10.2655 10.5465 7.76606C12.8694 6.30745 15.8125 6.2687 18.1732 7.66546C24.2466 11.3001 19.4634 22.4717 17.8545 25.8082C15.9344 25.4814 13.9839 25.3697 12.0391 25.4751C9.76394 25.4698 7.92188 23.625 7.91984 21.3498C7.91916 20.8635 7.52539 20.4692 7.03908 20.4678C4.97215 20.7246 6.94947 24.7785 7.85198 25.4751H5.27869C4.79192 25.4931 4.41197 25.9024 4.42998 26.3892C4.44709 26.8507 4.81729 27.2207 5.27869 27.2379H10.8663C9.9964 27.9333 8.10766 31.8575 10.1394 32.0961C10.6265 32.0961 11.0214 31.7012 11.0214 31.2141C11.0892 27.7782 14.4307 26.6539 17.3346 27.4923C17.337 27.5044 17.3334 27.5189 17.3383 27.531L17.3384 27.5275Z" fill="#0E264F"/>
<path d="M48.3235 9.70339C45.4525 7.91457 41.8217 7.88364 38.9207 9.62341C31.6515 13.9752 36.5485 25.8641 38.4361 29.804C33.5009 31.6968 30.2393 36.4314 30.2291 41.7171V54.4734C30.2291 54.9598 30.6234 55.3541 31.1099 55.3541C31.5963 55.3541 31.9906 54.9598 31.9906 54.4734V41.717C31.9972 37.3811 34.5447 33.4516 38.5002 31.6758C37.0343 35.6181 33.4941 46.8709 38.7874 51.5838C41.012 53.6153 44.2621 54.0573 46.9483 52.6936C60.3625 46.3536 62.4392 18.1829 48.3235 9.70339ZM46.2275 51.0907C44.1735 52.1588 41.6713 51.8322 39.9602 50.2729C34.5677 45.4729 40.5999 31.1452 40.6616 31.0009C40.6616 30.9888 40.6616 30.9743 40.6689 30.961C42.407 30.7037 44.1661 30.6184 45.9209 30.7065C48.3786 30.7098 50.3701 32.7013 50.3733 35.1589C50.3727 35.6454 50.7664 36.0403 51.2529 36.0409H51.2541C53.3949 35.7901 51.2177 31.3705 50.2473 30.7102H53.2907C53.7771 30.7102 54.1714 30.3158 54.1714 29.8294C54.1714 29.343 53.7771 28.9486 53.2907 28.9486H47.3312C48.3004 28.2896 50.4812 23.8601 48.338 23.6178C47.8516 23.6178 47.4573 24.0122 47.4573 24.4986V24.4998C47.4506 26.953 45.4628 28.9397 43.0097 28.945C42.0471 28.948 41.0878 29.0601 40.1505 29.2794C38.5403 25.9428 33.7524 14.7785 39.8318 11.1354C42.1936 9.735 45.1404 9.77385 47.4645 11.236C59.7931 18.5052 58.905 44.6551 46.2275 51.0907Z" fill="#0E264F"/>
<path d="M31.1099 30.7066C31.5961 30.706 31.99 30.312 31.9906 29.8259V6.91803C31.9906 6.4316 31.5963 6.03727 31.1099 6.03727C30.6234 6.03727 30.2291 6.4316 30.2291 6.91803V29.8258C30.2291 30.3122 30.6234 30.7066 31.1099 30.7066Z" fill="#0E264F"/>
</svg>
